<svg width="2240" height="2860" viewBox="0 0 2240 2860" fill="none" xmlns="http://www.w3.org/2000/svg">
<rect x="2239" width="0.996441" height="1060" fill="#C4C4C4" fill-opacity="0.2"/>
<rect x="2132" width="0.996441" height="1060" fill="#C4C4C4" fill-opacity="0.2"/>
<rect x="2026" width="0.996441" height="1060" fill="#C4C4C4" fill-opacity="0.2"/>
<rect x="1919" width="0.996441" height="1060" fill="#C4C4C4" fill-opacity="0.2"/>
<rect x="1813" width="0.996441" height="1060" fill="#C4C4C4" fill-opacity="0.2"/>
<rect x="1706" width="0.996441" height="1060" fill="#C4C4C4" fill-opacity="0.2"/>
<rect x="1599" width="0.996441" height="1060" fill="#C4C4C4" fill-opacity="0.2"/>
<rect x="1493" width="0.996441" height="1060" fill="#C4C4C4" fill-opacity="0.2"/>
<rect x="1386" width="0.996441" height="1060" fill="#C4C4C4" fill-opacity="0.2"/>
<rect x="1279" width="0.996441" height="1060" fill="#C4C4C4" fill-opacity="0.2"/>
<rect x="1173" width="0.996441" height="1060" fill="#C4C4C4" fill-opacity="0.2"/>
<rect x="1066" width="0.996441" height="1060" fill="#C4C4C4" fill-opacity="0.2"/>
<rect x="960" width="0.996441" height="1060" fill="#C4C4C4" fill-opacity="0.2"/>
<rect x="853" width="0.996441" height="1060" fill="#C4C4C4" fill-opacity="0.2"/>
<rect x="746" width="0.996441" height="1060" fill="#C4C4C4" fill-opacity="0.2"/>
<rect x="640" width="0.996441" height="1060" fill="#C4C4C4" fill-opacity="0.2"/>
<rect x="533" width="0.996441" height="1060" fill="#C4C4C4" fill-opacity="0.2"/>
<rect x="426" width="0.996441" height="1060" fill="#C4C4C4" fill-opacity="0.2"/>
<rect x="320" width="0.996441" height="1060" fill="#C4C4C4" fill-opacity="0.2"/>
<rect x="213" width="0.996441" height="1060" fill="#C4C4C4" fill-opacity="0.2"/>
<rect x="107" width="0.996441" height="1060" fill="#C4C4C4" fill-opacity="0.2"/>
<rect width="0.996441" height="1060" fill="#C4C4C4" fill-opacity="0.2"/>
<rect width="0.998438" height="2240" transform="matrix(0.000359292 -1 1 0.000342691 1 1060)" fill="#C4C4C4" fill-opacity="0.2"/>
<rect width="0.998438" height="2240" transform="matrix(0.000372391 -1 1 0.000330636 1 952)" fill="#C4C4C4" fill-opacity="0.2"/>
<rect width="0.998438" height="2240" transform="matrix(0.000374261 -1 1 0.000328984 1 846)" fill="#C4C4C4" fill-opacity="0.2"/>
<rect width="0.998438" height="2240" transform="matrix(0.000374261 -1 1 0.000328984 1 740)" fill="#C4C4C4" fill-opacity="0.2"/>
<rect width="0.998438" height="2240" transform="matrix(0.000374261 -1 1 0.000328984 1 635)" fill="#C4C4C4" fill-opacity="0.2"/>
<rect width="0.998438" height="2240" transform="matrix(0.000372391 -1 1 0.000330636 1 529)" fill="#C4C4C4" fill-opacity="0.2"/>
<rect width="0.998438" height="2240" transform="matrix(0.000372391 -1 1 0.000330636 1 423)" fill="#C4C4C4" fill-opacity="0.2"/>
<rect width="0.998438" height="2240" transform="matrix(0.000372391 -1 1 0.000330636 1 317)" fill="#C4C4C4" fill-opacity="0.2"/>
<rect width="0.998438" height="2240" transform="matrix(0.000372391 -1 1 0.000330636 1 212)" fill="#C4C4C4" fill-opacity="0.2"/>
<rect width="0.998438" height="2240" transform="matrix(0.000372391 -1 1 0.000330636 1 106)" fill="#C4C4C4" fill-opacity="0.2"/>
<rect width="0.998438" height="2240" transform="matrix(0.000330716 -1 1 0.000372302 1 0.0858459)" fill="#C4C4C4" fill-opacity="0.2"/>
<rect x="2239" y="1059.91" width="0.996441" height="1060" fill="#C4C4C4" fill-opacity="0.2"/>
<rect x="2132" y="1059.91" width="0.996441" height="1060" fill="#C4C4C4" fill-opacity="0.2"/>
<rect x="2026" y="1059.91" width="0.996441" height="1060" fill="#C4C4C4" fill-opacity="0.2"/>
<rect x="1919" y="1059.91" width="0.996441" height="1060" fill="#C4C4C4" fill-opacity="0.2"/>
<rect x="1813" y="1059.91" width="0.996441" height="1060" fill="#C4C4C4" fill-opacity="0.2"/>
<rect x="1706" y="1059.91" width="0.996441" height="1060" fill="#C4C4C4" fill-opacity="0.2"/>
<rect x="1599" y="1059.91" width="0.996441" height="1060" fill="#C4C4C4" fill-opacity="0.2"/>
<rect x="1493" y="1059.91" width="0.996441" height="1060" fill="#C4C4C4" fill-opacity="0.2"/>
<rect x="1386" y="1059.91" width="0.996441" height="1060" fill="#C4C4C4" fill-opacity="0.2"/>
<rect x="1279" y="1059.91" width="0.996441" height="1060" fill="#C4C4C4" fill-opacity="0.2"/>
<rect x="1173" y="1059.91" width="0.996441" height="1060" fill="#C4C4C4" fill-opacity="0.2"/>
<rect x="1066" y="1059.91" width="0.996441" height="1060" fill="#C4C4C4" fill-opacity="0.2"/>
<rect x="960" y="1059.91" width="0.996441" height="1060" fill="#C4C4C4" fill-opacity="0.2"/>
<rect x="853" y="1059.91" width="0.996441" height="1060" fill="#C4C4C4" fill-opacity="0.2"/>
<rect x="746" y="1059.91" width="0.996441" height="1060" fill="#C4C4C4" fill-opacity="0.2"/>
<rect x="640" y="1059.91" width="0.996441" height="1060" fill="#C4C4C4" fill-opacity="0.2"/>
<rect x="533" y="1059.91" width="0.996441" height="1060" fill="#C4C4C4" fill-opacity="0.2"/>
<rect x="426" y="1059.91" width="0.996441" height="1060" fill="#C4C4C4" fill-opacity="0.2"/>
<rect x="320" y="1059.91" width="0.996441" height="1060" fill="#C4C4C4" fill-opacity="0.2"/>
<rect x="213" y="1059.91" width="0.996441" height="1060" fill="#C4C4C4" fill-opacity="0.2"/>
<rect x="107" y="1059.91" width="0.996441" height="1060" fill="#C4C4C4" fill-opacity="0.2"/>
<rect y="1059.91" width="0.996441" height="1060" fill="#C4C4C4" fill-opacity="0.2"/>
<rect width="0.998438" height="2240" transform="matrix(0.000359292 -1 1 0.000342691 1 2119.91)" fill="#C4C4C4" fill-opacity="0.2"/>
<rect width="0.998438" height="2240" transform="matrix(0.000372391 -1 1 0.000330636 1 2011.91)" fill="#C4C4C4" fill-opacity="0.2"/>
<rect width="0.998438" height="2240" transform="matrix(0.000374261 -1 1 0.000328984 1 1905.91)" fill="#C4C4C4" fill-opacity="0.2"/>
<rect width="0.998438" height="2240" transform="matrix(0.000374261 -1 1 0.000328984 1 1799.91)" fill="#C4C4C4" fill-opacity="0.2"/>
<rect width="0.998438" height="2240" transform="matrix(0.000374261 -1 1 0.000328984 1 1694.91)" fill="#C4C4C4" fill-opacity="0.2"/>
<rect width="0.998438" height="2240" transform="matrix(0.000372391 -1 1 0.000330636 1 1588.91)" fill="#C4C4C4" fill-opacity="0.2"/>
<rect width="0.998438" height="2240" transform="matrix(0.000372391 -1 1 0.000330636 1 1482.91)" fill="#C4C4C4" fill-opacity="0.2"/>
<rect width="0.998438" height="2240" transform="matrix(0.000372391 -1 1 0.000330636 1 1376.91)" fill="#C4C4C4" fill-opacity="0.2"/>
<rect width="0.998438" height="2240" transform="matrix(0.000372391 -1 1 0.000330636 1 1271.91)" fill="#C4C4C4" fill-opacity="0.2"/>
<rect width="0.998438" height="2240" transform="matrix(0.000372391 -1 1 0.000330636 1 1165.91)" fill="#C4C4C4" fill-opacity="0.2"/>
<rect x="2239" y="2120" width="0.996441" height="1060" fill="#C4C4C4" fill-opacity="0.2"/>
<rect x="2132" y="2120" width="0.996441" height="1060" fill="#C4C4C4" fill-opacity="0.2"/>
<rect x="2026" y="2120" width="0.996441" height="1060" fill="#C4C4C4" fill-opacity="0.2"/>
<rect x="1919" y="2120" width="0.996441" height="1060" fill="#C4C4C4" fill-opacity="0.2"/>
<rect x="1813" y="2120" width="0.996441" height="1060" fill="#C4C4C4" fill-opacity="0.2"/>
<rect x="1706" y="2120" width="0.996441" height="1060" fill="#C4C4C4" fill-opacity="0.2"/>
<rect x="1599" y="2120" width="0.996441" height="1060" fill="#C4C4C4" fill-opacity="0.2"/>
<rect x="1493" y="2120" width="0.996441" height="1060" fill="#C4C4C4" fill-opacity="0.2"/>
<rect x="1386" y="2120" width="0.996441" height="1060" fill="#C4C4C4" fill-opacity="0.2"/>
<rect x="1279" y="2120" width="0.996441" height="1060" fill="#C4C4C4" fill-opacity="0.2"/>
<rect x="1173" y="2120" width="0.996441" height="1060" fill="#C4C4C4" fill-opacity="0.2"/>
<rect x="1066" y="2120" width="0.996441" height="1060" fill="#C4C4C4" fill-opacity="0.2"/>
<rect x="960" y="2120" width="0.996441" height="1060" fill="#C4C4C4" fill-opacity="0.2"/>
<rect x="853" y="2120" width="0.996441" height="1060" fill="#C4C4C4" fill-opacity="0.2"/>
<rect x="746" y="2120" width="0.996441" height="1060" fill="#C4C4C4" fill-opacity="0.2"/>
<rect x="640" y="2120" width="0.996441" height="1060" fill="#C4C4C4" fill-opacity="0.2"/>
<rect x="533" y="2120" width="0.996441" height="1060" fill="#C4C4C4" fill-opacity="0.2"/>
<rect x="426" y="2120" width="0.996441" height="1060" fill="#C4C4C4" fill-opacity="0.2"/>
<rect x="320" y="2120" width="0.996441" height="1060" fill="#C4C4C4" fill-opacity="0.2"/>
<rect x="213" y="2120" width="0.996441" height="1060" fill="#C4C4C4" fill-opacity="0.2"/>
<rect x="107" y="2120" width="0.996441" height="1060" fill="#C4C4C4" fill-opacity="0.2"/>
<rect y="2120" width="0.996441" height="1060" fill="#C4C4C4" fill-opacity="0.2"/>
<rect width="0.998438" height="2240" transform="matrix(0.000374261 -1 1 0.000328984 1 2860)" fill="#C4C4C4" fill-opacity="0.2"/>
<rect width="0.998438" height="2240" transform="matrix(0.000374261 -1 1 0.000328984 1 2755)" fill="#C4C4C4" fill-opacity="0.2"/>
<rect width="0.998438" height="2240" transform="matrix(0.000372391 -1 1 0.000330636 1 2649)" fill="#C4C4C4" fill-opacity="0.2"/>
<rect width="0.998438" height="2240" transform="matrix(0.000372391 -1 1 0.000330636 1 2543)" fill="#C4C4C4" fill-opacity="0.2"/>
<rect width="0.998438" height="2240" transform="matrix(0.000372391 -1 1 0.000330636 1 2437)" fill="#C4C4C4" fill-opacity="0.2"/>
<rect width="0.998438" height="2240" transform="matrix(0.000372391 -1 1 0.000330636 1 2332)" fill="#C4C4C4" fill-opacity="0.2"/>
<rect width="0.998438" height="2240" transform="matrix(0.000372391 -1 1 0.000330636 1 2226)" fill="#C4C4C4" fill-opacity="0.2"/>
</svg>
