<svg width="26" height="25" viewBox="0 0 26 25" fill="none" xmlns="http://www.w3.org/2000/svg">
<path d="M25.7841 24.425V14.9026C25.7841 9.87194 23.1749 7.44643 19.396 7.44643C16.4268 7.44643 15.0772 9.15327 14.5374 10.2313V7.80577H9.13895C9.13895 9.33294 9.13895 24.2453 9.13895 24.2453H14.5374V15.0823C14.5374 14.5433 14.5374 14.1839 14.7173 13.7348C15.0772 12.8364 16.0669 11.6686 17.5065 11.6686C19.5759 11.6686 20.2957 13.1958 20.2957 15.4416V24.2453L25.7841 24.425ZM3.29064 5.7396C5.1801 5.7396 6.43973 4.3921 6.43973 2.95476C6.43973 1.24792 5.27007 0.169922 3.47059 0.169922C1.58114 0.169922 0.321502 1.51742 0.321502 2.95476C0.0515801 4.3921 1.40119 5.7396 3.29064 5.7396ZM5.89989 24.425V7.98544H0.501451V24.425H5.89989Z" fill="white"/>
</svg>
