<svg width="42" height="16" viewBox="0 0 42 16" fill="none" xmlns="http://www.w3.org/2000/svg">
<path d="M13.2008 9.9001C12.4008 9.9001 11.8008 9.3001 11.8008 8.5001C11.8008 7.7001 12.4008 7.1001 13.2008 7.1001C14.0008 7.1001 14.6008 7.7001 14.6008 8.5001C14.6008 9.3001 14.0008 9.9001 13.2008 9.9001Z" fill="white"/>
<path d="M7.80039 9.8C7.00039 9.8 6.40039 9.2 6.40039 8.4C6.40039 7.6 7.00039 7 7.80039 7C8.60039 7 9.20039 7.6 9.20039 8.4C9.20039 9.2 8.60039 9.8 7.80039 9.8Z" fill="white"/>
<path d="M1.70078 9.99995C0.900783 9.99995 0.300781 9.39995 0.300781 8.59995C0.300781 7.79995 0.900783 7.19995 1.70078 7.19995C2.50078 7.19995 3.10078 7.79995 3.10078 8.59995C3.10078 9.39995 2.50078 9.99995 1.70078 9.99995Z" fill="white"/>
<path d="M41 8.00005L34.1 1.10005C33.7 0.700049 33.1 0.700049 32.7 1.10005C32.3 1.50005 32.3 2.10005 32.7 2.50005L37.9 7.70005H18.7H18.6C18.3 7.70005 18 8.00005 18 8.30005C18 8.60005 18.3 8.90005 18.6 8.90005H18.7H38L32.8 14.1C32.4 14.5 32.4 15.1 32.8 15.5C33.2 15.9 33.8 15.9 34.2 15.5L41.1 8.60005C41.2 8.50005 41.2 8.50005 41.2 8.50005C41.2 8.40005 41.2 8.40005 41.2 8.40005V8.30005V8.20005C41.1 8.10005 41.1 8.10005 41 8.00005Z" fill="white"/>
</svg>
