<svg width="31" height="11" viewBox="0 0 31 11" fill="none" xmlns="http://www.w3.org/2000/svg">
<path d="M23.1241 0.176094C23.4904 -0.058698 23.9483 -0.058698 24.2917 0.176094L30.4276 4.30843C30.7939 4.54322 31 4.98933 31 5.48239C31 5.97545 30.771 6.42156 30.4276 6.65635L24.3146 10.8122C24.1315 10.9296 23.9254 11 23.7193 11C23.5133 11 23.3072 10.9296 23.1241 10.8122C22.7578 10.5774 22.5517 10.1313 22.5517 9.63821V1.35005C22.5517 0.85699 22.7578 0.410886 23.1241 0.176094ZM24.0628 2.05443V8.91035L29.1226 5.48239L24.0628 2.05443Z" fill="black"/>
<path d="M15.8665 7.31363C14.8802 7.31363 14.0807 6.4937 14.0807 5.48226C14.0807 4.47081 14.8802 3.65088 15.8665 3.65088C16.8528 3.65088 17.6523 4.47081 17.6523 5.48226C17.6523 6.4937 16.8528 7.31363 15.8665 7.31363Z" fill="black"/>
<path d="M8.81379 7.31363C7.82751 7.31363 7.02797 6.4937 7.02797 5.48226C7.02797 4.47081 7.82751 3.65088 8.81379 3.65088C9.80007 3.65088 10.5996 4.47081 10.5996 5.48226C10.5996 6.4937 9.80007 7.31363 8.81379 7.31363Z" fill="black"/>
<path d="M1.78645 7.31363C0.800166 7.31363 0.000627995 6.4937 0.000627995 5.48226C0.000627995 4.47081 0.800166 3.65088 1.78645 3.65088C2.77273 3.65088 3.57227 4.47081 3.57227 5.48226C3.57227 6.4937 2.77273 7.31363 1.78645 7.31363Z" fill="black"/>
</svg>
