<svg width="48" height="30" viewBox="0 0 48 30" fill="none" xmlns="http://www.w3.org/2000/svg">
<path d="M18.9043 13.6822H38.3198L32.9039 8.44998C32.4952 8.0551 32.4952 7.46277 32.9039 7.06789C33.3127 6.67301 33.9258 6.67301 34.3345 7.06789L41.4877 13.9784C41.4877 13.9784 41.4877 13.9784 41.5898 14.0771C41.5898 14.0771 41.5898 14.0771 41.5898 14.1758V14.2745V14.3732C41.5898 14.3732 41.5898 14.3732 41.5898 14.472C41.5898 14.472 41.5898 14.472 41.4877 14.5707L34.3345 21.4811C33.9258 21.876 33.3127 21.876 32.9039 21.4811C32.4952 21.0863 32.4952 20.4939 32.9039 20.099L38.3198 14.8668H18.9043C18.3933 14.8668 17.8824 14.472 17.8824 13.8796C17.8824 14.0771 18.2911 13.6822 18.9043 13.6822Z" fill="white"/>
<path d="M32.1894 0.157715C40.4666 0.157715 47.2109 6.67329 47.2109 14.6697C47.2109 22.6661 40.4666 29.1817 32.1894 29.1817C23.9122 29.1817 17.1679 22.6661 17.1679 14.6697C17.1679 6.67329 23.9122 0.157715 32.1894 0.157715ZM32.1894 27.997C39.8535 27.997 46.0869 21.975 46.0869 14.571C46.0869 7.1669 39.8535 1.24364 32.1894 1.24364C24.5254 1.24364 18.2919 7.26562 18.2919 14.6697C18.2919 22.0737 24.5254 27.997 32.1894 27.997Z" fill="white"/>
<path d="M12.6709 16.0518C11.8808 16.0518 11.2403 15.433 11.2403 14.6697C11.2403 13.9064 11.8808 13.2876 12.6709 13.2876C13.4611 13.2876 14.1016 13.9064 14.1016 14.6697C14.1016 15.433 13.4611 16.0518 12.6709 16.0518Z" fill="white"/>
<path d="M7.04985 16.0518C6.25974 16.0518 5.61922 15.433 5.61922 14.6697C5.61922 13.9064 6.25974 13.2876 7.04985 13.2876C7.83996 13.2876 8.48047 13.9064 8.48047 14.6697C8.48047 15.433 7.83996 16.0518 7.04985 16.0518Z" fill="white"/>
<path d="M1.43266 16.0518C0.64255 16.0518 0.00203729 15.433 0.00203729 14.6697C0.00203729 13.9064 0.64255 13.2876 1.43266 13.2876C2.22277 13.2876 2.86328 13.9064 2.86328 14.6697C2.86328 15.433 2.22277 16.0518 1.43266 16.0518Z" fill="white"/>
</svg>
