<svg width="16" height="22" viewBox="0 0 16 22" fill="none" xmlns="http://www.w3.org/2000/svg">
<path d="M7.99994 12.4942C10.3437 12.4942 12.2499 10.5549 12.2499 8.17046C12.2499 5.78607 10.3437 3.81497 7.99994 3.81497C5.65623 3.81497 3.75 5.75428 3.75 8.13867C3.75 10.5231 5.65623 12.4942 7.99994 12.4942ZM7.99994 4.8641C9.78117 4.8641 11.2499 6.35832 11.2499 8.17046C11.2499 9.9826 9.78117 11.445 7.99994 11.445C6.21872 11.445 4.74999 9.95081 4.74999 8.13867C4.74999 6.32653 6.21872 4.8641 7.99994 4.8641Z" fill="#C1CC23"/>
<path d="M7.99989 0C3.43745 0 0 3.62428 0 8.45665C0 10.396 0.593742 11.7948 1.28123 13.0347L7.5624 21.7139C7.6249 21.841 7.7499 21.9364 7.8749 21.9682C7.90615 21.9682 7.96865 22 8.03114 22C8.12489 22 8.18739 21.9682 8.28114 21.9364C8.37489 21.9046 8.43739 21.8092 8.46864 21.7457L14.7498 13.0347C15.406 11.7948 15.9998 10.396 15.9998 8.45665C16.031 3.62428 12.5623 0 7.99989 0ZM7.99989 1.04913C12.0623 1.04913 14.9998 4.16474 14.9998 8.48844C14.9998 10.1098 14.5623 11.2543 13.8748 12.526L7.99989 20.5058L2.12497 12.5578C1.43748 11.2543 0.999987 10.1098 0.999987 8.48844C1.03124 4.16474 3.9687 1.04913 7.99989 1.04913Z" fill="#C1CC23"/>
</svg>
