<svg width="18" height="12" viewBox="0 0 18 12" fill="none" xmlns="http://www.w3.org/2000/svg">
<path d="M0.317727 1.2462C-0.0472499 1.72155 -0.0499001 2.31775 0.310969 2.76651L6.66173 10.784C7.02247 11.2626 7.7107 11.5339 8.4727 11.5373C9.2347 11.5407 9.92545 11.2456 10.2903 10.8001L16.7482 2.86939C16.9307 2.63172 17.0408 2.36391 17.042 2.09562C17.0432 1.82733 16.9355 1.55856 16.7551 1.31927C16.3944 0.840698 15.7062 0.569343 14.9442 0.565956L2.13532 0.509017C1.37332 0.50563 0.682704 0.770855 0.317727 1.2462ZM3.21515 2.48132L13.8106 2.52842L8.48357 9.09288L3.21515 2.48132Z" fill="white"/>
</svg>
