<svg width="50" height="50" viewBox="0 0 50 50" fill="none" xmlns="http://www.w3.org/2000/svg">
<path d="M48.3286 16.0118C44.5958 6.38507 35.2638 0 24.9494 0C24.8512 0 24.753 0 24.6548 0H24.5565C24.5565 0 24.5565 0 24.4583 0C23.9671 0 23.3777 0.0982318 23.3777 0.0982318C21.806 0.196464 18.7608 0.589391 16.0104 1.66994C9.82175 4.0275 4.91016 8.74263 2.15967 14.833C-0.590823 20.9234 -0.689055 27.7014 1.66851 33.9882C3.53491 38.8016 6.77656 42.9273 11.0988 45.776H11.197C11.3935 45.8743 11.4917 45.9725 11.6882 46.0707L11.7864 46.169C11.8846 46.169 11.8846 46.2672 11.9828 46.2672C12.0811 46.3654 12.1793 46.3654 12.2775 46.4636C12.3758 46.5619 12.474 46.5619 12.6705 46.6601C12.6705 46.6601 12.6705 46.6601 12.7687 46.6601C12.7687 46.6601 12.8669 46.6601 12.8669 46.7583H12.9652C13.0634 46.7583 13.0634 46.8566 13.1616 46.8566C13.2599 46.8566 13.2599 46.9548 13.3581 46.9548C13.5546 47.053 13.6528 47.1513 13.8493 47.2495C14.0457 47.3477 14.2422 47.446 14.5369 47.5442C14.6351 47.6424 14.8316 47.6424 14.9298 47.7407C15.3227 47.9371 15.6174 48.0354 16.0104 48.2318C16.1086 48.2318 16.305 48.3301 16.4033 48.3301C16.5015 48.3301 16.5997 48.4283 16.5997 48.4283H16.698C17.2874 48.6248 17.8768 48.8212 18.3679 48.9194H18.4661C18.6626 49.0177 18.8591 49.0177 19.0555 49.0177L19.252 49.1159C19.252 49.1159 19.252 49.1159 19.3502 49.1159C20.0379 49.3124 20.529 49.4106 21.1184 49.5088C21.2166 49.5088 21.2166 49.5088 21.3149 49.5088H21.4131H21.5113C22.6901 49.7053 23.8689 49.8035 25.0477 49.8035C28.0929 49.8035 31.1381 49.2141 33.9868 48.1336C40.1754 45.776 45.087 41.0609 47.8375 34.9705C50.588 29.0766 50.6862 22.2986 48.3286 16.0118ZM23.9671 0.687623L24.6548 0.589391C24.753 0.589391 24.753 0.589391 24.8512 0.589391C29.861 0.589391 34.8709 2.1611 38.9966 5.10805C38.8984 5.20629 38.8001 5.20629 38.7019 5.30452C38.6037 5.30452 38.6037 5.40275 38.5054 5.40275C38.2107 5.59921 37.8178 5.79568 37.6214 6.1886C37.1302 6.87623 36.2461 7.76031 35.362 7.85855C35.2638 7.85855 35.1656 7.85855 35.0673 7.85855C34.6744 7.76031 34.3797 7.66208 34.1832 7.66208C33.9868 7.66208 33.7903 7.66208 33.6921 7.76031C33.4956 7.76031 33.3974 7.95678 33.3974 8.05501C33.3974 8.25147 33.2009 8.25147 33.0045 8.3497C32.7098 8.44794 32.3168 8.54617 32.2186 9.03733C32.2186 9.23379 32.1204 9.43025 32.0221 9.62672C32.0221 9.72495 31.9239 9.72495 31.8257 9.82318C31.6292 10.0196 31.3345 10.2161 31.1381 10.4126C31.0398 10.4126 31.0398 10.4126 30.9416 10.5108H30.8434H30.7451H30.6469C30.254 10.5108 29.6646 10.609 29.4681 10.9037C29.3699 11.1002 29.2716 11.2967 29.3699 11.5914C29.4681 11.8861 29.5663 12.279 29.5663 12.7701C29.5663 13.1631 29.6646 13.556 29.7628 13.8507C29.7628 14.0472 29.861 14.1454 29.861 14.2436C29.861 14.3418 29.9593 14.4401 30.0575 14.5383L30.7451 15.4224C30.9416 15.7171 31.1381 15.9136 31.3345 16.11C31.4327 16.2083 31.4327 16.5029 31.3345 16.8959C31.2363 17.387 30.9416 17.8782 30.7451 18.4676C30.6469 18.5658 30.6469 18.7623 30.5487 18.8605C30.4504 19.057 30.4504 19.1552 30.3522 19.3517C30.1557 19.7446 30.0575 20.1375 29.861 20.5305C29.7628 20.7269 29.6646 20.9234 29.5663 21.0216C29.4681 21.1198 29.3699 21.2181 29.3699 21.2181C29.3699 21.2181 29.3699 21.2181 29.2716 21.2181L29.1734 21.3163H29.0752C29.0752 21.3163 29.0752 21.3163 28.977 21.3163C28.8787 21.3163 28.8787 21.3163 28.7805 21.3163H28.6823C28.584 21.3163 28.584 21.3163 28.584 21.2181C28.2893 21.1198 28.0929 21.1198 27.9946 21.3163C27.8964 21.4145 27.8964 21.4145 27.8964 21.5128L27.7982 21.611C27.7982 21.7092 27.6999 21.7092 27.6999 21.8075C27.5035 22.0039 27.2088 22.1022 26.9141 22.1022C26.8159 22.1022 26.7176 22.1022 26.6194 22.1022C26.4229 22.1022 26.2265 22.0039 26.03 22.0039H25.9318C25.7353 22.0039 25.5388 22.0039 25.2441 22.0039C24.6548 22.0039 23.9671 22.1022 23.8689 21.7092C23.6724 21.2181 23.083 21.0216 22.5919 21.0216C22.3954 21.0216 22.2972 21.0216 22.1007 21.1198C21.9043 21.2181 21.7078 21.2181 21.5113 21.1198C21.3149 21.1198 21.1184 21.0216 20.9219 20.8251C20.8237 20.7269 20.7255 20.6287 20.7255 20.5305C20.6272 20.334 20.4308 20.2358 20.3326 20.0393C20.1361 19.9411 19.9396 19.7446 19.8414 19.4499C19.7432 19.3517 19.6449 19.1552 19.6449 18.9587C19.5467 18.7623 19.5467 18.664 19.4485 18.4676C19.3502 18.3694 19.3502 18.2711 19.252 18.1729C19.252 18.1729 19.252 18.1729 19.252 18.0747C19.1538 17.9764 19.1538 17.9764 19.0555 17.8782C19.0555 17.8782 19.0555 17.78 18.9573 17.78C18.6626 17.4853 18.4661 17.1906 18.2697 16.6012C18.1715 16.3065 17.975 16.0118 17.8768 15.8153C17.6803 15.4224 17.4838 15.1277 17.5821 14.9312C17.5821 14.833 17.7785 14.7348 17.975 14.7348C18.7608 14.5383 18.7608 13.7525 18.7608 13.1631C18.7608 13.0648 18.7608 12.9666 18.7608 12.8684C18.7608 12.7701 18.7608 12.6719 18.7608 12.5737C18.8591 11.8861 18.9573 11.1984 18.7608 10.9037C18.6626 10.8055 18.5644 10.7073 18.3679 10.7073C17.8768 10.7073 17.6803 10.0196 17.5821 9.33202L17.4838 8.9391C17.3856 8.25147 17.1891 7.26916 16.8944 6.67976C16.8944 6.58153 16.7962 6.58153 16.7962 6.4833C16.4033 5.99214 15.8139 5.69745 15.2245 5.79568C15.1263 5.79568 14.9298 5.89391 14.9298 6.09037C14.7333 6.38507 14.8316 6.97446 15.2245 7.95678C15.5192 8.6444 15.5192 9.03733 15.421 9.23379C15.3227 9.33202 15.2245 9.43025 15.028 9.43025C14.2422 9.52849 13.751 9.33202 13.3581 8.9391C12.8669 8.44794 12.6705 8.05501 12.474 7.56385C12.3758 7.36739 12.3758 7.07269 12.3758 6.778C12.3758 6.38507 12.2775 5.99214 12.1793 5.59921C11.9828 5.30452 11.7864 5.30452 11.6882 5.30452C11.3935 5.40275 11.197 5.79568 11.0988 6.28684C11.0005 6.67976 10.9023 6.97446 10.6076 7.17092C10.6076 7.17092 10.6076 7.17092 10.5094 7.17092C10.4111 7.17092 10.4111 7.17092 10.3129 7.17092H10.2147H10.1164H10.0182C9.91998 7.17092 9.91998 7.17092 9.82175 7.17092C9.72352 7.17092 9.62529 7.17092 9.62529 7.26916C9.13413 7.66208 9.33059 7.85855 9.52705 8.15324C9.62529 8.25147 9.82175 8.3497 10.0182 8.54617C10.3129 8.74263 10.7058 9.03733 10.7058 9.23379C10.7058 9.23379 10.7058 9.33202 10.6076 9.33202C10.4111 9.52849 10.4111 9.72495 10.6076 10.0196C10.8041 10.3143 11.197 10.609 11.4917 10.7073C11.5899 10.7073 11.6882 10.7073 11.8846 10.7073C12.1793 10.609 12.2775 10.5108 12.474 10.4126C12.6705 10.3143 12.7687 10.2161 12.9652 10.2161C13.0634 10.2161 13.0634 10.2161 13.1616 10.2161C13.751 10.3143 14.2422 10.7073 14.3404 11.1002C14.3404 11.1984 14.4386 11.2967 14.4386 11.2967C14.5369 11.3949 14.7333 11.2967 14.9298 11.1984C15.1263 11.1002 15.421 11.002 15.6174 11.1002C15.7157 11.1984 15.7157 11.2967 15.7157 11.3949C15.7157 11.6896 15.421 11.9843 15.1263 12.279L15.028 12.3772C14.5369 12.8684 14.3404 13.2613 14.0457 13.7525C13.8493 14.1454 13.6528 14.4401 13.4563 15.0295C13.4563 15.1277 13.4563 15.1277 13.4563 15.2259C13.3581 15.5206 13.4563 15.7171 13.6528 15.7171C13.6528 15.7171 13.751 15.7171 13.8493 15.7171C13.9475 15.7171 14.0457 15.6189 14.1439 15.4224L14.2422 15.2259C14.2422 15.1277 14.3404 15.1277 14.3404 15.0295C14.5369 14.6365 14.5369 14.4401 14.4386 14.0472C14.4386 13.9489 14.4386 13.9489 14.4386 13.8507C14.5369 13.6542 14.9298 13.556 15.5192 13.556C15.9121 13.556 16.5997 13.6542 16.5997 13.7525C16.5997 13.7525 16.5997 13.8507 16.4033 13.8507C16.0104 14.0472 15.6174 14.1454 15.421 14.3418C15.1263 14.5383 15.028 14.833 15.028 15.2259C15.028 15.5206 14.9298 15.7171 14.8316 15.9136C14.7333 16.3065 14.5369 16.6994 14.7333 17.2888C14.8316 17.4853 14.8316 17.6817 14.9298 17.8782C15.1263 18.4676 15.3227 18.9587 15.6174 19.057C15.7157 19.057 15.8139 19.057 15.9121 19.057H16.0104C16.1086 18.9587 16.2068 18.8605 16.4033 18.8605C16.5015 18.8605 16.5997 18.7623 16.698 18.7623H16.7962C16.9927 18.664 17.1891 18.7623 17.2874 18.8605C17.2874 18.8605 17.2874 18.8605 17.2874 18.9587C17.2874 19.057 17.3856 19.1552 17.3856 19.2534C17.5821 19.6464 17.8768 19.6464 18.0732 19.5481C18.0732 19.5481 18.0732 19.5481 18.1715 19.5481C18.3679 19.4499 18.4661 19.4499 18.5644 19.5481C18.6626 19.5481 18.6626 19.6464 18.7608 19.6464C18.8591 19.6464 18.9573 19.7446 18.9573 19.7446C19.0555 19.8428 19.1538 19.8428 19.1538 19.9411C19.3502 20.1375 19.3502 20.334 19.3502 20.6287C19.252 20.9234 19.4485 21.2181 19.5467 21.4145C19.5467 21.4145 19.5467 21.5128 19.6449 21.5128C19.7432 21.7092 19.7432 21.8075 19.7432 21.9057C19.7432 22.0039 19.6449 22.0039 19.5467 22.0039C19.252 22.1022 19.1538 22.2004 18.9573 22.3969C18.7608 22.4951 18.6626 22.6916 18.4661 22.6916C18.3679 22.6916 18.3679 22.6916 18.2697 22.6916C18.0732 22.6916 17.8768 22.6916 17.6803 22.6916C17.6803 22.6916 17.6803 22.6916 17.5821 22.6916C17.4838 22.6916 17.2874 22.7898 17.1891 22.6916C17.0909 22.6916 16.9927 22.5933 16.9927 22.4951V22.3969C16.8944 22.1022 16.8944 22.0039 16.7962 21.8075C16.7962 21.611 16.698 21.4145 16.5997 21.0216C16.5997 20.9234 16.5015 20.8251 16.4033 20.7269C16.2068 20.4322 15.9121 20.334 15.6174 20.334C15.421 20.334 15.2245 20.5305 15.1263 20.8251C14.9298 21.2181 14.6351 21.4145 14.1439 21.5128C13.9475 21.5128 13.751 21.5128 13.5546 21.5128C13.1616 21.4145 13.0634 21.3163 12.9652 21.1198C12.8669 21.0216 12.8669 20.8251 12.7687 20.7269C12.7687 20.7269 12.7687 20.6287 12.6705 20.6287C12.5722 20.5305 12.5722 20.4322 12.474 20.4322C12.1793 20.1375 11.7864 19.8428 11.4917 19.6464C11.197 19.4499 10.9023 19.3517 10.8041 19.2534C10.7058 19.2534 10.6076 19.2534 10.6076 19.2534C10.4111 19.2534 10.2147 19.2534 10.0182 19.2534C9.72352 19.2534 9.52705 19.2534 9.42882 19.2534L9.33059 19.1552C9.23236 18.9587 9.33059 18.9587 9.42882 18.8605C9.52705 18.664 9.72352 18.5658 9.52705 18.0747C9.33059 17.6817 9.23236 17.4853 9.0359 17.2888C8.93766 16.9941 8.83943 16.9941 8.83943 16.8959C8.7412 16.7976 8.64297 16.6012 8.64297 16.5029C8.54474 16.3065 8.54474 16.0118 8.54474 15.8153C8.54474 15.4224 8.54474 15.0295 8.15181 14.833C7.95535 14.7348 7.95535 14.7348 7.85711 14.7348C7.66065 14.7348 7.46419 14.833 7.26772 14.9312C7.16949 15.0295 7.07126 15.1277 6.97303 15.0295C6.97303 15.0295 6.87479 14.9312 6.87479 14.833L6.77656 14.7348C6.5801 14.3418 6.48187 13.9489 6.2854 13.9489C6.18717 13.9489 6.08894 14.0472 5.99071 14.3418C5.89248 14.5383 5.89248 14.5383 5.89248 14.6365C5.89248 14.6365 5.79424 14.5383 5.79424 14.4401C5.69601 14.2436 5.59778 14.0472 5.40132 13.8507C5.20485 13.6542 4.91016 13.556 4.81193 13.556H4.7137C4.51723 13.6542 4.61546 13.9489 4.81193 14.2436C4.61546 14.4401 4.81193 14.5383 4.91016 14.7348C5.20485 15.1277 5.49955 15.4224 5.00839 15.8153C4.91016 15.9136 4.91016 15.9136 4.81193 15.9136C4.32077 16.11 3.53491 15.8153 2.94552 15.6189C2.84729 15.6189 2.74906 15.5206 2.65083 15.5206C5.20485 9.33202 10.0182 4.6169 16.305 2.25933C16.5997 2.1611 16.8944 2.06287 17.1891 1.96464C19.252 1.27701 22.0025 0.884086 23.9671 0.687623ZM40.4701 39.8821C40.1754 39.8821 39.7825 40.275 39.586 40.5697L39.4878 40.668C39.2913 40.8644 39.3895 41.3556 39.586 41.7485V41.8468C39.6842 42.1414 39.8807 42.5344 39.6842 42.7308C39.586 42.8291 39.3895 43.0255 39.2913 43.1238C38.8001 43.5167 38.2107 44.0079 38.5054 44.7937C38.6037 44.9902 38.6037 45.0884 38.6037 45.2849C37.8178 45.776 37.032 46.2672 36.3443 46.6601C35.4603 46.169 35.1656 45.8743 35.1656 45.776C35.1656 45.776 35.1656 45.776 35.2638 45.6778C35.362 45.5796 35.6567 45.5796 35.8532 45.4813C36.5408 45.3831 37.3267 45.1866 37.6214 44.7937C37.7196 44.6955 37.7196 44.499 37.6214 44.4008C37.5231 44.2043 37.5231 44.1061 37.6214 44.0079C37.6214 43.9096 37.8178 43.9096 37.916 43.8114C38.1125 43.7132 38.4072 43.6149 38.5054 43.4185C38.8001 43.0255 38.9966 42.5344 38.9966 42.1415C38.9966 41.945 38.8984 41.8468 38.8001 41.7485C38.7019 41.5521 38.6037 41.3556 38.5054 41.0609C38.5054 40.9627 38.4072 40.8644 38.4072 40.7662C38.309 40.5697 38.2107 40.275 38.0143 40.1768C37.916 40.0786 37.8178 39.9804 37.7196 39.9804C37.5231 39.8821 37.2284 39.6857 37.2284 39.5874C37.2284 39.4892 37.2284 39.4892 37.3267 39.391C37.4249 39.2927 37.4249 39.1945 37.5231 39.0963C37.6214 38.8016 37.5231 38.4086 37.3267 38.1139C37.3267 38.0157 37.2284 37.9175 37.2284 37.9175C37.1302 37.8192 37.1302 37.6228 37.032 37.5246C37.032 37.4263 36.9337 37.3281 36.9337 37.2299C36.9337 37.1316 36.9337 37.1316 36.8355 37.0334C36.7373 36.8369 36.639 36.6405 36.5408 36.3458C36.4426 35.9528 36.4426 35.5599 36.5408 35.0688C36.639 34.7741 36.639 34.3811 36.7373 34.0864V33.9882C36.9337 33.2024 37.1302 32.5147 36.9337 32.0236C36.8355 31.8271 36.8355 31.7289 36.9337 31.6306C37.032 31.336 37.4249 31.2377 37.8178 31.0413C37.916 31.0413 38.0143 30.943 38.1125 30.943C38.7019 30.7466 38.6037 30.0589 38.5054 29.2731C38.5054 28.9784 38.4072 28.7819 38.4072 28.4872C38.4072 28.0943 38.309 27.7996 38.309 27.6031C38.2107 27.0138 38.2107 26.6208 38.309 25.7367C38.4072 25.0491 38.6037 24.6562 38.8001 24.4597C38.8984 24.3615 38.9966 24.3615 39.0948 24.3615C39.1931 24.3615 39.2913 24.3615 39.4878 24.3615H39.586C39.7825 24.3615 39.9789 24.4597 40.2736 24.558C41.1577 24.8527 42.14 25.1473 43.0241 24.9509C43.1223 24.9509 43.1223 24.9509 43.2206 24.9509C43.3188 24.9509 43.417 24.8526 43.6135 24.8526C44.5958 24.6562 45.5781 24.9509 45.8728 25.5403C46.2658 26.2279 47.0516 26.7191 47.641 26.5226C47.641 26.5226 47.641 26.5226 47.7392 26.5226C47.9357 26.4244 48.0339 26.5226 48.1322 26.6208C48.3286 26.8173 48.6233 26.9155 49.2127 26.8173C49.3109 26.8173 49.3109 26.8173 49.4092 26.8173C49.1145 31.9253 47.0516 36.9352 43.81 40.8644C43.5153 40.9627 43.3188 41.0609 43.1223 41.0609C42.9259 41.0609 42.7294 41.0609 42.6312 40.9627C42.2383 40.275 41.8453 40.275 41.5506 40.3733C41.2559 40.3733 40.9612 40.3733 40.863 40.1768C40.7648 39.9804 40.5683 39.8821 40.4701 39.8821ZM21.7078 49.1159C21.7078 49.1159 21.806 49.1159 21.7078 49.1159C22.1007 48.9194 22.4937 48.6248 22.6901 48.3301C22.7883 48.2318 22.7883 48.1336 22.7883 48.0354C22.7883 47.9371 22.7883 47.9371 22.7883 47.8389C22.6901 47.7407 22.5919 47.7407 22.2972 47.8389L22.1007 47.9371C21.1184 48.2318 20.6272 48.4283 20.529 48.0354C20.529 47.9371 20.4308 47.8389 20.3326 47.8389C20.1361 47.8389 19.9396 47.9371 19.6449 48.2318C19.5467 48.3301 19.3502 48.4283 19.1538 48.6248C18.3679 48.4283 17.4838 48.1336 16.698 47.8389C16.698 47.446 16.698 47.053 16.7962 46.7583C16.8944 46.2672 17.0909 45.9725 17.2874 45.8743C17.5821 45.776 17.7785 45.5796 17.7785 45.2849C17.7785 45.0884 17.7785 44.8919 17.5821 44.5972C17.3856 44.3026 17.1891 44.4008 16.9927 44.4008C16.8944 44.4008 16.7962 44.4008 16.698 44.4008C16.698 44.4008 16.5997 44.3026 16.5997 44.2043C16.5997 44.1061 16.5997 44.0079 16.5997 44.0079C16.5997 43.9096 16.698 43.8114 16.698 43.8114C16.7962 43.6149 17.0909 43.4185 17.2874 43.3202C17.5821 43.1238 17.8768 42.9273 17.975 42.6326C18.0732 42.3379 18.1715 42.1414 18.1715 41.8468C18.2697 41.4538 18.2697 41.1591 18.4661 41.1591C18.6626 41.1591 18.7608 40.9627 18.9573 40.7662C19.0555 40.668 19.0555 40.5697 19.1538 40.5697C19.252 40.3733 19.4485 40.0786 19.5467 40.0786C19.5467 40.0786 19.6449 40.0786 19.7432 40.275V40.3733C20.0379 41.1591 20.529 41.5521 21.0202 41.6503C21.1184 41.6503 21.2166 41.7485 21.2166 41.7485C21.2166 41.7485 21.2166 41.8468 21.2166 41.945V42.0432C21.2166 42.1415 21.1184 42.2397 21.1184 42.4361C21.1184 42.5344 21.1184 42.5344 21.1184 42.6326C21.1184 42.7308 21.2166 42.8291 21.2166 42.8291C21.4131 43.222 22.0025 43.8114 22.199 43.7132C22.199 43.7132 22.2972 43.7132 22.2972 43.6149C22.2972 43.6149 22.2972 43.5167 22.2972 43.4185C22.2972 43.3202 22.2972 43.3202 22.2972 43.222V43.1238C22.2972 43.0255 22.2972 43.0255 22.2972 42.9273C22.2972 42.7308 22.3954 42.5344 22.4937 42.3379C22.5919 42.1414 22.8866 41.7485 23.476 41.8468H23.5742C24.0654 42.0432 24.4583 42.3379 24.6548 42.6326C24.8512 42.8291 25.0477 42.9273 25.2441 43.0255C25.4406 43.1238 25.6371 43.1238 25.8335 43.222H25.9318C26.2265 43.3202 26.5212 43.3202 26.6194 43.7132C26.9141 44.4008 28.4858 44.1061 28.977 44.0079C29.0752 44.0079 29.2716 44.0079 29.4681 44.1061C29.6646 44.2043 29.7628 44.3026 29.9593 44.4008C30.254 44.5972 30.5487 44.7937 30.7451 44.7937C31.1381 44.8919 31.4328 44.6955 31.8257 44.499C32.0221 44.4008 32.2186 44.3026 32.5133 44.2043C32.9062 44.1061 33.0045 44.1061 33.0045 44.1061C33.0045 44.1061 33.0045 44.1061 33.0045 44.2043C33.0045 44.4008 32.808 44.6955 32.5133 45.0884C32.4151 45.1866 32.4151 45.2849 32.4151 45.3831V45.4813C32.4151 45.5796 32.4151 45.5796 32.4151 45.6778C32.4151 45.776 32.4151 45.776 32.4151 45.8743C32.4151 45.9725 32.4151 45.9725 32.4151 46.0707V46.169C32.4151 46.2672 32.4151 46.2672 32.5133 46.3654V46.4636C32.5133 46.5619 32.6115 46.6601 32.6115 46.6601V46.7583C32.6115 46.8566 32.7098 46.8566 32.7098 46.9548C32.7098 46.9548 32.7098 47.053 32.808 47.053C32.808 47.1513 32.9062 47.1513 32.9062 47.2495C32.9062 47.2495 32.9062 47.3477 33.0045 47.3477C33.0045 47.446 33.1027 47.446 33.1027 47.5442C33.2009 47.6424 33.2009 47.6424 33.2992 47.7407C29.4681 49.2141 25.5388 49.6071 21.7078 49.1159ZM13.1616 40.275C13.0634 40.4715 12.8669 40.5697 12.7687 40.668C12.7687 40.7662 12.6705 40.7662 12.6705 40.8644C12.5722 40.9627 12.474 41.0609 12.474 41.0609C12.2775 41.2574 11.9828 41.2574 11.6882 41.3556C11.6882 41.3556 11.6882 41.3556 11.5899 41.3556C11.3935 41.3556 11.0988 41.4538 11.0005 41.5521C11.0005 41.6503 10.9023 41.6503 10.9023 41.7485C10.9023 41.7485 10.9023 41.8468 10.8041 41.8468C10.6076 41.945 9.91998 41.6503 9.62529 41.5521C9.42882 41.4538 9.42882 41.4538 9.33059 41.4538C9.33059 41.5521 9.33059 41.5521 9.42882 41.6503C9.72352 41.8468 9.82175 42.2397 9.72352 42.4361C9.72352 42.5344 9.72352 42.5344 9.62529 42.5344C9.62529 42.5344 9.52705 42.4361 9.42882 42.3379C9.23236 42.0432 8.93766 41.945 8.83943 41.945C8.64297 41.945 8.54474 42.0432 8.4465 42.2397C8.4465 42.2397 8.4465 42.2397 8.4465 42.3379C8.4465 42.5344 8.4465 42.6326 8.54474 42.8291C8.54474 42.9273 8.64297 42.9273 8.64297 43.0255C5.79425 40.4715 3.63315 37.3281 2.2579 33.6935C2.2579 33.5953 2.15967 33.3988 2.15967 33.3006C2.15967 33.3006 2.15967 33.3006 2.2579 33.3006C2.2579 33.3988 2.45436 33.3988 2.5526 33.4971C2.65083 33.4971 2.74906 33.5953 2.84729 33.5953C3.14199 33.6935 3.33845 33.6935 3.53491 34.1847C3.53491 34.2829 3.63315 34.3811 3.73138 34.3811C3.73138 34.3811 3.73138 34.3811 3.82961 34.3811C3.82961 34.3811 3.92784 34.3811 3.92784 34.2829L4.02607 34.1847C4.1243 34.0864 4.1243 34.0864 4.22254 33.9882C4.32077 33.89 4.419 33.6935 4.51723 33.5953H4.61546C4.61546 33.5953 4.7137 33.6935 4.7137 33.7917C4.91016 34.1847 5.20485 34.3811 5.49955 34.4794C5.69601 34.4794 5.89248 34.4794 5.99071 34.2829C6.08894 34.1847 6.08894 33.9882 5.99071 33.6935C5.79424 33.3006 5.79424 33.1041 5.79424 33.1041C5.89248 33.1041 6.08894 33.1041 6.5801 33.5953C6.87479 33.89 7.16949 34.2829 7.36595 34.6758C7.85711 35.3635 8.25004 35.9528 8.83943 36.0511C9.23236 36.1493 9.62529 36.5422 9.91998 36.9352C10.3129 37.4263 10.6076 37.8193 11.0005 37.6228C11.3935 37.4263 13.0634 36.9352 13.8493 37.4263C14.0457 37.5246 14.1439 37.8193 14.1439 38.0157C14.1439 38.8016 13.8493 39.391 13.3581 39.8821C13.4563 39.8821 13.2599 40.0786 13.1616 40.275ZM2.45436 16.6012C2.5526 16.6012 2.74906 16.6994 2.84729 16.6994C3.24022 16.6994 3.53491 16.7976 3.82961 16.8959C4.1243 16.9941 4.419 17.1906 4.81193 17.1906C5.20485 17.1906 5.40132 16.8959 5.69601 16.6994C5.99071 16.4047 6.18717 16.2083 6.48187 16.4047C6.67833 16.5029 6.97303 16.6012 7.16949 16.6012C7.46419 16.6994 7.66065 16.6994 7.75888 16.8959L7.85711 16.9941C7.85711 17.0923 7.95535 17.0923 7.95535 17.0923C7.95535 17.0923 8.05358 17.1906 8.15181 17.1906C8.25004 17.1906 8.34827 17.2888 8.4465 17.2888C8.54474 17.387 8.7412 17.387 8.7412 17.4853C8.7412 17.4853 8.7412 17.5835 8.64297 17.6817C8.4465 17.8782 7.85711 18.3694 7.85711 18.7623C7.85711 18.8605 7.85711 18.8605 7.95535 18.9587C7.95535 19.057 8.05358 19.057 8.15181 19.1552C8.34827 19.2534 8.54474 19.2534 8.7412 19.2534C8.83943 19.2534 8.93766 19.2534 8.93766 19.2534C9.0359 19.2534 9.0359 19.2534 9.0359 19.3517C9.0359 19.3517 9.0359 19.4499 8.83943 19.7446C8.54474 20.1375 7.46419 21.5128 6.48187 21.1198C6.08894 21.0216 5.79424 20.8251 5.40132 20.6287C5.40132 20.6287 5.40132 20.6287 5.30309 20.6287C5.00839 20.5305 4.81193 20.334 4.61546 20.2358C4.419 20.1375 4.1243 20.0393 3.92784 19.9411C3.53491 19.8428 2.84729 19.6464 2.2579 19.4499C2.06144 19.3517 1.76674 19.2534 1.57028 19.1552C1.76674 18.1729 2.06144 17.2888 2.45436 16.4047C2.2579 16.4047 2.35613 16.5029 2.45436 16.6012ZM13.3581 23.2809C12.7687 23.5756 12.7687 23.5756 12.2775 23.0845L12.1793 22.9862C11.7864 22.5933 11.0988 22.9862 10.5094 23.3792C10.2147 23.5756 9.82175 23.7721 9.72352 23.7721C9.72352 23.7721 9.72352 23.7721 9.62529 23.6739C9.62529 23.6739 9.62529 23.5756 9.52705 23.5756C9.42882 23.3792 9.42882 23.1827 9.52705 22.9862C9.72352 22.5933 10.3129 22.3969 10.7058 22.2986C10.8041 22.2986 10.9023 22.2004 11.0988 22.1022C11.197 22.0039 11.3935 21.9057 11.4917 21.8075C11.6882 21.7092 11.7864 21.611 11.9828 21.5128C12.1793 21.4145 12.2775 21.3163 12.3758 21.3163C12.3758 21.3163 12.3758 21.3163 12.474 21.3163C12.5722 21.3163 12.5722 21.4145 12.6705 21.5128C12.7687 21.8075 12.9652 22.0039 13.1616 22.2004C13.2599 22.2986 13.2599 22.2986 13.3581 22.3969C13.5546 22.5933 13.751 22.6915 13.6528 22.888C13.6528 22.9862 13.5546 23.0845 13.4563 23.0845L13.3581 23.2809Z" fill="black"/>
</svg>
