<svg width="34" height="69" viewBox="0 0 34 69" fill="none" xmlns="http://www.w3.org/2000/svg">
<path d="M15.8008 1.2C15.8008 0.5 16.3008 0 17.0008 0C17.7008 0 18.2008 0.5 18.2008 1.2C18.2008 1.9 17.7008 2.4 17.0008 2.4C16.3008 2.4 15.8008 1.9 15.8008 1.2Z" fill="#C1CC23"/>
<path d="M17.5996 68.6378L33.0996 54.0378C33.4996 53.6378 33.4996 53.1378 33.0996 52.7378C32.7996 52.3378 32.1996 52.3378 31.7996 52.7378L17.7996 65.9378V21.0378C17.7996 20.5378 17.3996 20.1378 16.8996 20.1378C16.3996 20.1378 15.9996 20.5378 15.9996 21.0378V65.9378L1.99961 52.7378C1.59961 52.4378 0.999609 52.4378 0.699609 52.7378C0.399609 53.0378 0.399609 53.6378 0.699609 54.0378L16.1996 68.6378C16.6996 68.8378 17.1996 68.9378 17.5996 68.6378Z" fill="#C1CC23"/>
<path d="M15.8008 7.50005C15.8008 6.80005 16.3008 6.30005 17.0008 6.30005C17.7008 6.30005 18.2008 6.80005 18.2008 7.50005C18.2008 8.20005 17.7008 8.70005 17.0008 8.70005C16.3008 8.60005 15.8008 8.10005 15.8008 7.50005Z" fill="#C1CC23"/>
<path d="M15.8008 13.7C15.8008 13 16.3008 12.5 17.0008 12.5C17.7008 12.5 18.2008 13 18.2008 13.7C18.2008 14.4 17.7008 14.9 17.0008 14.9C16.3008 14.9 15.8008 14.4 15.8008 13.7Z" fill="#C1CC23"/>
</svg>
