<svg width="40" height="16" viewBox="0 0 40 16" fill="none" xmlns="http://www.w3.org/2000/svg">
<path d="M18.1607 7.51365H36.6247L31.4742 2.28576C31.0855 1.8912 31.0855 1.29936 31.4742 0.904805C31.8629 0.510247 32.446 0.510247 32.8347 0.904805L39.6372 7.80957C39.6372 7.80957 39.6372 7.80957 39.7344 7.90821C39.7344 7.90821 39.7344 7.90821 39.7344 8.00684V8.10548V8.20412C39.7344 8.20412 39.7344 8.20412 39.7344 8.30276C39.7344 8.30276 39.7344 8.30276 39.6372 8.4014L32.8347 15.3062C32.446 15.7007 31.8629 15.7007 31.4742 15.3062C31.0855 14.9116 31.0855 14.3198 31.4742 13.9252L36.6247 8.69732H18.1607C17.6748 8.69732 17.189 8.30276 17.189 7.71093C17.189 7.90821 17.5777 7.51365 18.1607 7.51365Z" fill="#C1CC23"/>
<path d="M12.2313 9.88105C11.4799 9.88105 10.8708 9.26277 10.8708 8.50009C10.8708 7.73741 11.4799 7.11914 12.2313 7.11914C12.9827 7.11914 13.5918 7.73741 13.5918 8.50009C13.5918 9.26277 12.9827 9.88105 12.2313 9.88105Z" fill="#C1CC23"/>
<path d="M6.8856 9.88105C6.13421 9.88105 5.5251 9.26277 5.5251 8.50009C5.5251 7.73741 6.13421 7.11914 6.8856 7.11914C7.63698 7.11914 8.24609 7.73741 8.24609 8.50009C8.24609 9.26277 7.63698 9.88105 6.8856 9.88105Z" fill="#C1CC23"/>
<path d="M1.5438 9.88105C0.792417 9.88105 0.183299 9.26277 0.183299 8.50009C0.183299 7.73741 0.792417 7.11914 1.5438 7.11914C2.29518 7.11914 2.9043 7.73741 2.9043 8.50009C2.9043 9.26277 2.29518 9.88105 1.5438 9.88105Z" fill="#C1CC23"/>
</svg>
