<svg width="20" height="15" viewBox="0 0 20 15" fill="none" xmlns="http://www.w3.org/2000/svg">
<path d="M19.5001 0.012455C-0.48995 5.71605 0.0930924 5.21646 0.00980065 5.71605C-0.0734911 6.21563 0.301322 6.09074 4.0078 8.71356L5.34047 14.6669V14.7086C5.34047 14.7502 5.34047 14.7502 5.38212 14.7918L5.42376 14.8335L5.46541 14.8751L5.50706 14.9167C5.50706 14.9167 5.50706 14.9167 5.5487 14.9584H5.59035H5.63199C5.67364 14.9584 5.71529 15 5.75693 15C5.79858 15 5.84022 15 5.88187 14.9584C5.88187 14.9584 5.88187 14.9584 5.92351 14.9584C5.96516 14.9584 6.00681 14.9167 6.00681 14.8751L8.92202 12.0441C12.8367 14.6669 13.5031 15.4163 13.7946 14.7502C20.1248 0.178985 19.9998 0.595304 19.9998 0.428776C19.9998 -0.112441 19.3751 0.012455 19.5001 0.012455ZM1.42576 5.92421L16.0018 1.84427L4.42426 7.96418L1.42576 5.92421ZM5.71528 12.5021L5.00731 9.37967C5.04895 9.4213 6.21504 10.1707 6.13174 10.129L5.71528 12.5021ZM5.21553 8.5054L8.88037 6.54869L14.7941 3.42628L6.63149 9.46293C6.58985 9.4213 5.13224 8.42213 5.21553 8.5054ZM6.42326 13.3763L6.92302 10.6703C6.96466 10.7119 8.38062 11.6278 8.29733 11.5862L6.42326 13.3763ZM13.2948 13.9592C12.92 13.7094 8.50556 10.7119 7.33947 9.96252L18.5839 1.67774L13.2948 13.9592Z" fill="#C1CC23"/>
</svg>
