<svg width="34" height="43" viewBox="0 0 34 43" fill="none" xmlns="http://www.w3.org/2000/svg">
<path d="M28.0566 28.7998C27.6572 28.7998 27.4575 28.7998 27.4575 28.9998C27.2578 29.1998 27.2578 29.3998 27.2578 29.7998V30.7998H28.9552V29.9998C28.9552 29.5998 28.9552 29.3998 28.7555 29.1998C28.7555 28.9998 28.5558 28.7998 28.0566 28.7998Z" fill="white"/>
<path d="M21.2675 28.7998C21.0678 28.7998 21.0678 28.7998 20.8681 28.7998C20.6684 28.7998 20.6684 28.9998 20.4688 28.9998V35.2998C20.6684 35.4998 20.8681 35.4998 20.8681 35.6998C21.0678 35.6998 21.0678 35.8998 21.2675 35.8998C21.4672 35.8998 21.6669 35.8998 21.8666 35.6998C22.0663 35.4998 22.0663 35.2998 22.0663 35.0998V29.8998C22.0663 29.4998 22.0663 29.2998 21.8666 29.0998C21.8666 28.7998 21.6669 28.7998 21.2675 28.7998Z" fill="white"/>
<path d="M32.2496 21.1C30.5523 19.5 17.0733 19.5 17.0733 19.5C17.0733 19.5 3.29485 19.5 1.69735 21.2C7.1414e-07 22.9 0 30.8 0 31C0 31 7.1414e-07 39.1 1.69735 40.8C3.3947 42.5 17.0733 42.5 17.0733 42.5C17.0733 42.5 30.8518 42.5 32.2496 40.8C33.947 39.1 33.947 31 33.947 31C33.947 30.7 33.947 22.6 32.2496 21.1ZM10.3838 25.7H8.08736V37.4H6.09048V25.7H3.79407V23.6H10.6833L10.3838 25.7ZM17.0733 37.4H15.1763V36.4C14.7769 36.8 14.3775 37 14.1778 37.2C13.7785 37.4 13.3791 37.6 12.8799 37.6C12.4805 37.6 12.0811 37.4 11.8814 37.2C11.6817 37 11.4821 36.4 11.4821 35.9V27.6H13.3791V35.3C13.3791 35.5 13.3791 35.7 13.5788 35.7C13.5788 35.9 13.7785 35.9 13.9782 35.9C14.1778 35.9 14.3775 35.9 14.5772 35.7C14.7769 35.5 14.9766 35.3 15.1763 35.1V27.4H17.0733V37.4ZM24.1622 35.3C24.1622 35.9 23.9626 36.6 23.7629 37C23.5632 37.4 22.9641 37.6 22.4649 37.6C21.9657 37.6 21.6661 37.6 21.4665 37.4C21.2668 37.2 20.8674 37 20.6677 36.8V37.6H18.571V23.8H20.6677V28.2C20.8674 28 21.2668 27.6 21.4665 27.6C21.6661 27.4 22.0655 27.4 22.2652 27.4C22.8643 27.4 23.2637 27.6 23.7629 28C24.1622 28.4 24.1622 29 24.1622 29.9V35.3ZM31.0515 32.6H27.2574V34.5C27.2574 35.1 27.2574 35.3 27.4571 35.5C27.6568 35.7 27.8565 35.7 28.0562 35.7C28.4555 35.7 28.6552 35.7 28.6552 35.5C28.8549 35.3 28.8549 34.9 28.8549 34.2V33.8H31.0515V34.2C31.0515 35.2 30.8518 36.1 30.2527 36.5C29.8534 36.9 28.9548 37.3 27.9563 37.3C27.1576 37.3 26.259 37.1 25.8596 36.5C25.4602 35.9 25.0608 35.2 25.0608 34.2V30C25.0608 29.2 25.2605 28.3 25.8596 27.9C26.4587 27.3 27.1576 27.1 27.9563 27.1C28.7551 27.1 29.6537 27.3 30.053 27.9C30.4524 28.3 30.6521 29.2 30.6521 30.2C31.0515 30.1 31.0515 32.6 31.0515 32.6Z" fill="white"/>
<path d="M28.0545 15.2999H25.7581V13.9999C25.3588 14.3999 24.9594 14.7999 24.4602 14.9999C24.0608 15.1999 23.6614 15.3999 23.1622 15.3999C22.7628 15.3999 22.3634 15.1999 21.8642 14.9999C21.6645 14.5999 21.4648 14.1999 21.4648 13.4999V3.8999H23.7613V12.3999C23.7613 12.5999 23.7613 12.7999 23.9609 12.9999C23.9609 13.1999 24.1606 13.1999 24.3603 13.1999C24.56 13.1999 24.7597 13.1999 24.9594 12.9999C25.1591 12.7999 25.3588 12.5999 25.5584 12.3999V4.0999H28.0545V15.2999Z" fill="white"/>
<path d="M19.1694 4.6999C18.5703 4.0999 17.8714 3.8999 16.873 3.8999C15.8745 3.8999 14.9759 4.0999 14.3769 4.6999C13.7778 5.0999 13.5781 5.9999 13.5781 6.7999V12.5999C13.5781 13.5999 13.7778 14.2999 14.3769 14.8999C14.9759 15.4999 15.8745 15.6999 16.6733 15.6999C17.6717 15.6999 18.5703 15.4999 18.9697 14.8999C19.5688 14.2999 19.7685 13.5999 19.7685 12.5999V6.7999C19.9681 5.8999 19.7685 5.0999 19.1694 4.6999ZM17.6717 12.5999C17.6717 12.7999 17.6717 13.1999 17.472 13.1999C17.2724 13.3999 17.0727 13.3999 16.873 13.3999C16.6733 13.3999 16.2739 13.3999 16.2739 13.1999C16.0742 12.9999 16.0742 12.7999 16.0742 12.5999V6.5999C16.0742 6.3999 16.0742 6.1999 16.2739 5.9999C16.4736 5.7999 16.6733 5.7999 16.873 5.7999C17.0727 5.7999 17.472 5.7999 17.472 5.9999C17.6717 6.1999 17.6717 6.3999 17.6717 6.5999V12.5999Z" fill="white"/>
<path d="M7.48829 0.1H4.99219L7.88766 9.3V15.3H10.3838V9L13.2792 0H10.7831L9.08579 6L7.48829 0.1Z" fill="white"/>
</svg>
