<svg width="32" height="32" viewBox="0 0 32 32" fill="none" xmlns="http://www.w3.org/2000/svg">
<rect x="0.929688" y="1.2113" width="30" height="30" fill="#C1CC23"/>
<path d="M24.4295 7.29156L13.4661 7.00771C13.1749 7.00887 12.9979 7.19151 13.0059 7.48255C12.9766 7.73735 13.2009 7.95476 13.4921 7.95361L23.3991 8.20526L7.50793 24.6048C7.33096 24.7875 7.33896 25.0785 7.52594 25.2597C7.71291 25.4409 8.00406 25.4397 8.18102 25.2571L24.0722 8.8575L24.6356 18.7517C24.679 19.0062 24.9034 19.2236 25.1217 19.2227C25.3401 19.2219 25.5525 19.0027 25.5819 18.7479L24.953 7.79885C24.8368 7.54463 24.6852 7.32693 24.4295 7.29156Z" fill="white" stroke="white"/>
</svg>
