<svg width="255" height="57" viewBox="0 0 255 57" fill="none" xmlns="http://www.w3.org/2000/svg">
<path d="M113.372 39.3172C113.572 39.3172 113.672 39.3172 113.772 39.2171C113.972 39.2171 114.072 39.1171 114.172 39.0171L114.272 38.917C114.272 38.917 114.372 38.817 114.472 38.5168C114.572 38.2167 114.772 37.9166 114.872 37.4163L119.371 22.3096H114.072V22.5097C112.972 27.0117 111.772 30.7133 110.673 33.6146C109.773 35.8156 108.973 37.6164 108.073 38.917L107.773 39.3172H113.372ZM111.073 33.9148C112.172 31.0135 113.372 27.3118 114.472 22.9098H118.671L114.472 37.3163V37.4163C114.372 37.9166 114.172 38.2167 114.072 38.4168C113.972 38.5168 113.972 38.6169 113.972 38.6169C113.872 38.6169 113.872 38.7169 113.872 38.7169C113.872 38.7169 113.872 38.7169 113.772 38.817C113.672 38.817 113.472 38.817 113.272 38.817L108.873 38.917C109.473 37.5164 110.273 35.9157 111.073 33.9148Z" fill="white"/>
<path d="M126.165 19.2085H109.669C109.069 19.2085 108.469 19.7087 108.369 20.309L108.269 21.0093C108.169 21.4095 108.269 21.7096 108.569 22.0098C108.769 22.3099 109.169 22.51 109.569 22.51H109.669C110.469 22.51 110.669 22.61 110.769 22.61C110.769 22.8101 110.569 23.6105 110.269 24.5109C109.569 27.012 108.969 29.1129 108.169 31.2139C107.769 32.3144 107.27 33.4149 106.67 34.8155C106.17 35.8159 105.67 36.7163 105.17 37.3166C104.77 37.9169 104.07 38.7172 103.371 39.0174C103.171 39.1174 102.971 39.1174 102.571 39.1174C101.971 39.1174 101.471 39.5176 101.371 40.0178L99.4715 46.5207C99.4715 46.6208 99.4715 46.6208 99.4715 46.7208C99.3715 47.4211 99.6714 47.9214 100.571 48.2215L101.171 48.3215C101.271 48.3215 101.271 48.3215 101.371 48.3215C101.871 48.3215 102.371 48.0214 102.571 47.4211C103.171 45.7204 103.97 44.3197 104.87 43.5194C105.77 42.719 106.77 42.3189 107.969 42.3189L115.667 42.4189H115.767C116.167 42.4189 116.467 42.4189 116.667 42.5189H116.767C116.967 42.619 117.167 42.719 117.367 42.8191C117.667 43.1192 117.867 43.7195 117.867 44.5198C117.867 44.92 117.867 45.3202 117.767 45.7204C117.767 45.9205 117.667 46.0205 117.667 46.0205C117.667 46.1206 117.667 46.2206 117.567 46.3206C117.467 46.4207 117.467 46.6208 117.467 46.7208C117.467 47.4211 118.067 48.0214 118.767 48.0214H119.567C120.066 47.9214 120.466 47.6212 120.666 47.021L122.266 40.6181C122.366 40.418 122.366 40.318 122.266 40.1179C122.166 39.4176 121.566 38.9173 120.866 39.0174C120.566 39.0174 120.366 39.0174 120.166 39.0174C120.066 39.0174 120.066 39.0174 120.066 38.9173C119.966 38.8173 119.966 38.6172 120.066 37.9169L124.065 23.9106V23.8106C124.265 23.3103 124.465 22.8101 124.665 22.61C124.865 22.3099 125.365 22.3099 125.765 22.2098C126.365 22.1098 127.165 22.0098 127.365 21.2094L127.565 20.6091C127.565 20.5091 127.664 20.309 127.664 20.2089C127.465 19.8088 126.865 19.2085 126.165 19.2085ZM126.865 20.8092L126.665 21.4095C126.565 21.9097 126.165 21.9097 125.465 22.0098C124.965 22.1098 124.365 22.2098 124.065 22.61C123.765 22.9102 123.566 23.4104 123.366 24.0106L119.267 38.0169C119.067 38.7172 119.067 39.1174 119.267 39.4176C119.367 39.6176 119.567 39.7177 119.766 39.7177C119.966 39.7177 120.266 39.7177 120.566 39.7177C120.966 39.7177 121.366 40.0178 121.466 40.418C121.466 40.518 121.466 40.6181 121.466 40.7181L119.866 47.2211C119.766 47.5212 119.467 47.8213 119.167 47.8213H118.567C118.167 47.8213 117.767 47.5212 117.767 47.021C117.767 46.9209 117.767 46.8209 117.867 46.7208C117.867 46.6208 117.967 46.5207 117.967 46.4207C117.967 46.3206 117.967 46.2206 118.067 46.1206C118.167 45.6203 118.267 45.2202 118.267 44.7199C118.267 43.7195 118.067 43.1192 117.567 42.619C117.367 42.4189 117.067 42.3189 116.767 42.2188C116.767 42.2188 116.767 42.2188 116.667 42.2188C116.367 42.1188 116.067 42.1188 115.667 42.1188H115.567L107.769 42.0187C106.47 42.0187 105.27 42.4189 104.37 43.3193C103.371 44.2197 102.571 45.5203 101.971 47.4211C101.871 47.7213 101.571 47.9214 101.271 47.9214H101.171L100.571 47.8213C99.8714 47.6212 99.8714 47.2211 99.8714 46.9209V46.8209L101.771 40.318C101.871 40.0178 102.171 39.8177 102.471 39.8177C102.871 39.8177 103.071 39.8177 103.371 39.7177C104.27 39.4176 104.97 38.6172 105.47 37.8168C105.97 37.1165 106.47 36.3162 107.07 35.2157C107.669 33.9151 108.169 32.7145 108.669 31.6141C109.569 29.5131 110.169 27.4122 110.769 24.811C111.169 23.4104 111.269 22.9102 111.269 22.7101C111.269 22.3099 110.669 22.2098 110.469 22.2098C110.269 22.2098 109.969 22.1098 109.569 22.1098H109.469C109.269 22.1098 109.069 22.0097 108.869 21.8097C108.769 21.6096 108.669 21.4095 108.669 21.2094L108.769 20.5091C108.769 20.1089 109.169 19.8088 109.569 19.8088H126.065C126.465 19.8088 126.865 20.1089 126.865 20.6091C126.965 20.6091 126.965 20.7092 126.865 20.8092Z" fill="white"/>
<path d="M67.9839 20.5091C67.9839 19.8088 67.3841 19.2085 66.6842 19.2085H51.1881C50.5882 19.2085 49.9884 19.7087 49.8884 20.309L49.7884 21.0093C49.7884 21.1093 49.7884 21.1093 49.7884 21.2094C49.7884 21.9097 50.3883 22.51 51.0881 22.51C51.2881 22.51 51.8879 22.51 52.1878 22.61C52.1878 22.61 52.1878 22.61 52.1878 22.7101C52.1878 22.7101 52.1878 22.9102 52.0879 23.1102C51.0881 26.4117 50.0884 29.7132 49.1886 33.0147C48.8887 34.2152 48.5887 35.4158 48.1888 36.5163C47.9889 37.2166 47.7889 37.8168 47.489 38.217C47.2891 38.6172 47.1891 38.8173 46.9891 39.0174L46.8892 39.1174C46.7892 39.1174 46.7892 39.2175 46.6892 39.2175C46.4892 39.2175 46.2893 39.3175 46.0893 39.3175C45.4895 39.3175 44.6897 39.3175 44.3898 40.2179L44.1898 40.7181C44.0898 40.9182 44.0898 41.0183 44.0898 41.2184C44.0898 41.9187 44.6897 42.5189 45.3895 42.5189H62.0854C62.5852 42.5189 63.0851 42.2188 63.2851 41.6185L65.2846 35.916C65.3846 35.7159 65.3846 35.5158 65.3846 35.2157C65.2846 34.5154 64.6847 34.0151 63.9849 34.1152H63.785C63.1851 34.2152 62.4853 34.3153 62.2853 35.0156C62.1853 35.4158 61.8854 35.8159 61.5855 36.2161C61.1856 36.6163 60.7857 37.0165 60.0859 37.6167C59.486 38.0169 58.8862 38.3171 58.0864 38.4171C56.9866 38.7172 55.7869 38.7172 54.4873 38.7172C54.0874 38.7172 53.7874 38.7172 53.3875 38.7172H53.2876C53.2876 38.7172 53.2876 38.7172 53.1876 38.7172C53.1876 38.7172 53.1876 38.7172 53.1876 38.6172C53.1876 38.6172 53.1876 38.5172 53.1876 38.4171L55.0871 31.9142L56.5867 32.0142C56.6867 32.0142 56.6867 32.0142 56.7867 32.0142C57.1866 32.0142 57.5865 32.0142 57.7864 32.0142C57.7864 32.0142 57.7864 32.0142 57.8864 32.0142V32.1143C57.8864 32.1143 57.8864 32.2143 57.8864 32.4144C57.8864 32.6145 57.8864 32.8146 57.8864 32.9146C57.8864 33.1147 57.7864 33.2148 57.7864 33.4149C57.6865 33.615 57.6865 33.715 57.6865 33.9151C57.6865 34.6154 58.2863 35.2157 58.9861 35.2157H59.2861C59.7859 35.2157 60.5857 35.2157 60.8857 34.3153L62.9852 27.012C63.0851 26.8119 63.0851 26.6118 63.0851 26.4117C62.9851 25.7114 62.3853 25.2112 61.6855 25.3112H61.4855C60.8857 25.4113 60.1858 25.5113 59.8859 26.3117C59.686 27.012 59.386 27.5122 58.8862 27.8124C58.4863 28.1125 57.7864 28.3126 56.9866 28.3126H56.1868L57.6865 22.61C57.8864 22.61 58.1863 22.61 58.3863 22.61C58.6862 22.61 59.0861 22.61 59.386 22.61C60.0859 22.61 62.1854 22.61 62.8852 23.2103C63.1851 23.5104 63.3851 23.9106 63.3851 24.5109V25.2112C63.3851 25.9115 63.9849 26.5118 64.6847 26.5118H65.1846C65.7845 26.5118 66.2843 26.1116 66.3843 25.5113L67.584 20.6091C67.9839 20.8092 67.9839 20.6091 67.9839 20.5091ZM67.484 20.7092L66.1844 25.6114C66.0844 25.9115 65.7845 26.2116 65.4845 26.2116H64.9847C64.5848 26.2116 64.1849 25.9115 64.1849 25.4113V24.711C64.1849 23.9106 63.9849 23.3103 63.485 23.0102C62.6852 22.4099 60.9856 22.3099 59.686 22.3099C59.2861 22.3099 58.9861 22.3099 58.6862 22.3099C58.2863 22.3099 57.9864 22.3099 57.7864 22.3099H57.5865L55.687 29.0129H57.0866C57.9864 29.0129 58.6862 28.8128 59.2861 28.4126C59.7859 28.0124 60.1858 27.4122 60.4858 26.6118C60.5857 26.1116 60.9856 26.1116 61.5855 26.0115H61.7854C62.1853 25.9115 62.5853 26.2116 62.6852 26.7119C62.6852 26.8119 62.6852 27.012 62.6852 27.112L60.5857 34.4153C60.3858 34.9155 59.9859 35.0156 59.386 35.0156H59.0861C58.6862 35.0156 58.2863 34.7154 58.2863 34.2152C58.2863 34.1152 58.2863 34.0151 58.3863 33.9151C58.4863 33.715 58.4863 33.5149 58.5862 33.3148C58.5862 33.1147 58.6862 32.9146 58.6862 32.7145C58.6862 32.5145 58.6862 32.4144 58.5862 32.3144C58.5862 32.2143 58.4863 32.1143 58.3863 32.0142C58.2863 31.9142 58.1863 31.9142 58.0864 31.9142C57.7864 31.9142 57.4865 31.9142 56.9866 31.9142H56.8867L54.9871 31.8141L52.9876 38.7172C52.9876 38.8173 52.9876 38.8173 52.9876 38.8173C52.8877 39.0174 52.8877 39.2175 52.9876 39.3175C53.0876 39.5176 53.2876 39.5176 53.5875 39.5176H53.6875C53.9874 39.5176 54.3873 39.5176 54.7872 39.5176C56.0869 39.5176 57.3865 39.4176 58.4863 39.1174C59.2861 38.9173 59.9859 38.6172 60.5857 38.217C61.2856 37.6167 61.7854 37.2166 62.1854 36.8164C62.5853 36.3162 62.8852 35.916 62.9852 35.4158C63.0851 34.9155 63.485 34.9155 64.0849 34.8155H64.2848C64.6847 34.7154 65.0846 35.0156 65.1846 35.5158C65.1846 35.6158 65.1846 35.8159 65.1846 35.916L63.1851 41.6185C63.0851 41.9187 62.7852 42.1188 62.4853 42.1188H45.7894C45.3895 42.1188 44.9896 41.8186 44.9896 41.3184C44.9896 41.2184 44.9896 41.1183 45.0896 41.0183L45.2895 40.518C45.4895 40.0178 45.8894 40.0178 46.4892 39.9178C46.6892 39.9178 46.9891 39.9178 47.1891 39.8177C47.389 39.7177 47.589 39.6176 47.689 39.5176C47.689 39.5176 47.689 39.5176 47.689 39.4176L47.8889 39.2175C47.9889 39.0174 48.1888 38.8173 48.2888 38.5171C48.4888 38.0169 48.7887 37.4167 48.9886 36.7163C49.2886 35.5158 49.6885 34.3153 49.9884 33.2148C50.8882 30.0133 51.7879 26.6118 52.8877 23.3103C52.9876 23.0102 52.9876 22.9102 52.9876 22.7101C52.9876 22.61 52.9876 22.3099 52.7877 22.2098C52.4878 22.1098 52.0879 22.0098 51.2881 22.0098C50.8882 22.0098 50.4883 21.7096 50.4883 21.2094V21.1093L50.5882 20.409C50.5882 20.0089 50.8882 19.8088 51.2881 19.7087H66.8842C67.2841 19.7087 67.684 20.0089 67.684 20.5091C67.484 20.6091 67.484 20.7092 67.484 20.7092Z" fill="white"/>
<path d="M84.0807 26.8121C84.4806 26.0118 84.5805 24.7112 84.1806 23.8108C83.8807 23.2105 83.4808 22.8103 82.881 22.6102C82.4811 22.5102 82.0812 22.4102 81.6813 22.4102H81.5813C81.2814 22.4102 81.0814 22.4102 80.7815 22.5102H80.6815L80.0817 24.5111L78.582 29.4133L78.9819 29.5133C79.2819 29.6134 79.5818 29.6134 79.8817 29.6134C80.3816 29.6134 80.9814 29.5133 81.5813 29.3132C82.1811 29.1132 82.581 28.813 83.0809 28.3128C83.4808 27.8126 83.7807 27.4124 84.0807 26.8121ZM83.5808 26.612C83.3808 27.1123 83.0809 27.5124 82.581 28.0127C82.1811 28.4128 81.7812 28.713 81.2814 28.9131C80.7815 29.1132 80.2816 29.2132 79.7817 29.2132C79.5818 29.2132 79.3818 29.2132 79.0819 29.1132L80.3816 24.7112L80.9814 23.0104C81.1814 23.0104 81.2814 23.0104 81.4813 23.0104H81.5813C81.9812 23.0104 82.3811 23.1105 82.681 23.1105C83.0809 23.2105 83.4808 23.5106 83.6808 24.0109C84.0807 24.8112 83.8807 25.9117 83.5808 26.612Z" fill="white"/>
<path d="M96.5782 38.017C97.1781 35.1157 98.0778 32.2144 98.9776 29.3131C99.3775 28.0125 99.7774 26.6119 100.177 25.3113V25.2112C100.577 23.6105 100.977 22.51 102.577 22.51H102.677H102.777C103.177 22.51 103.676 22.3099 103.876 21.6096C103.876 21.5096 103.876 21.4095 103.976 21.4095C104.076 21.2094 104.176 20.9093 104.176 20.6092C104.176 19.9089 103.576 19.3086 102.877 19.3086H94.1788H94.0788C93.0791 19.3086 92.8791 20.0089 92.7792 20.4091L92.6792 21.1094C92.6792 21.2094 92.6792 21.2094 92.6792 21.3095C92.6792 22.0098 93.279 22.6101 93.9789 22.6101C94.1788 22.6101 94.8786 22.6101 95.1786 22.7101C95.1786 22.7101 95.1786 22.7101 95.1786 22.8102C95.1786 22.9102 95.0786 23.3104 94.8786 23.9107C94.8786 24.0107 94.7787 24.1107 94.7787 24.4109V24.5109L91.2795 36.7164C91.0796 37.4167 90.8796 37.9169 90.6797 38.3171L90.5797 38.4172C90.3797 38.8173 90.2798 39.1175 89.9798 39.2175C89.6799 39.3176 89.28 39.3176 88.8801 39.4176C88.3802 39.5177 87.9803 39.8178 87.7804 40.318L87.5804 40.8182C87.4805 40.9183 87.4805 41.1184 87.4805 41.2184C87.4805 41.9187 88.0803 42.519 88.7801 42.519H97.1781H97.278C97.8779 42.519 98.4777 42.0188 98.5777 41.4185C98.5777 41.3185 98.5777 41.2184 98.5777 41.2184C98.5777 41.0183 98.6777 40.7182 98.6777 40.5181C98.6777 39.8178 97.9779 39.3176 97.278 39.3176C97.1781 39.3176 97.0781 39.3176 96.9781 39.3176C96.5782 39.3176 96.4782 39.2175 96.3783 39.2175C96.3783 39.0174 96.4782 38.6172 96.5782 38.017ZM96.0783 39.4176C96.2783 39.7177 96.6782 39.7177 97.278 39.7177C97.6779 39.7177 97.9779 40.0179 98.0778 40.4181C98.0778 40.6181 98.0778 40.8182 97.9779 41.0183C97.9779 41.1184 97.9779 41.2184 97.9779 41.3185C97.8779 41.7186 97.578 42.0188 97.1781 42.0188C97.1781 42.0188 97.1781 42.0188 97.0781 42.0188H88.6802C88.2803 42.0188 87.8804 41.7186 87.8804 41.2184C87.8804 41.1184 87.8804 41.0183 87.8804 40.9183L88.0803 40.318C88.1803 40.0179 88.4802 39.8178 88.7801 39.8178C89.28 39.8178 89.5799 39.7177 89.9798 39.6177C90.5797 39.5176 90.7796 38.9174 90.9796 38.5172L91.0796 38.4172C91.2795 38.017 91.4795 37.4167 91.6794 36.7164L91.7794 36.4163L95.1786 24.4109V24.3108C95.2785 23.9107 95.2785 23.8106 95.3785 23.7106C95.5785 23.1103 95.6784 22.7101 95.6784 22.51C95.6784 22.41 95.6784 22.1098 95.4785 22.0098C95.1786 21.9098 94.7787 21.8097 93.9789 21.8097C93.579 21.8097 93.1791 21.5096 93.1791 21.0094V20.9093L93.279 20.209C93.379 19.8088 93.479 19.6087 93.9789 19.5087H102.877C103.277 19.5087 103.676 19.8088 103.676 20.309C103.676 20.5091 103.576 20.7092 103.576 20.9093C103.576 21.0094 103.476 21.1094 103.476 21.2094C103.377 21.7097 103.077 21.7097 102.877 21.7097H102.777C102.777 21.7097 102.777 21.7097 102.677 21.7097C100.677 21.7097 100.177 23.4104 99.7774 24.8111C99.7774 24.8111 99.7774 24.8111 99.7774 24.9111C99.3775 26.2117 98.9776 27.6123 98.5777 28.9129C97.6779 31.8142 96.7782 34.7155 96.1783 37.6168V37.7168C95.9784 38.6172 95.8784 39.1175 96.0783 39.4176Z" fill="white"/>
<path d="M88.6752 28.7128C88.7752 28.6128 88.8752 28.4127 88.8752 28.3126C89.8749 26.4118 89.8749 24.4109 88.8752 22.7101C88.7752 22.6101 88.6752 22.41 88.5752 22.2099C88.4753 22.0098 88.3753 21.9098 88.2753 21.8097C87.6755 21.1094 86.8757 20.6092 85.9759 20.209C84.9761 19.8088 83.8764 19.6087 83.0766 19.5087C82.2768 19.4086 81.477 19.3086 80.5772 19.3086H74.1788C73.579 19.3086 72.9791 19.7088 72.8791 20.309L72.6792 21.0094C72.6792 21.1094 72.5792 21.2094 72.5792 21.4095C72.5792 22.1098 73.1791 22.7101 73.8789 22.7101C74.3788 22.7101 74.7787 22.7101 74.9786 22.7101C75.0786 22.7101 75.0786 22.7101 75.1786 22.7101H75.2785C75.2785 22.8102 75.2785 23.0103 75.0786 23.6105C75.0786 23.7106 74.9786 23.8106 74.9786 23.8106C74.9786 23.9107 74.9786 23.9107 74.8786 24.3108V24.4109L71.3795 36.6164C71.1796 37.3167 70.9796 37.8169 70.7797 38.2171C70.5797 38.6172 70.4797 38.8173 70.2798 39.0174C70.2798 39.0174 70.1798 39.1175 69.9798 39.1175C69.6799 39.2175 69.38 39.2175 68.7801 39.2175H68.6802C68.4802 39.2175 68.0803 39.2175 67.8804 39.4176C67.6804 39.6177 67.5804 39.9178 67.5804 40.218V40.318L67.4805 40.8182C67.4805 40.9183 67.4805 41.0183 67.4805 41.1184C67.4805 41.8187 68.0803 42.419 68.7801 42.419H77.7779H78.0778C78.4777 42.419 78.6777 42.2189 78.9776 41.6186C78.9776 41.5185 78.9776 41.5185 79.0776 41.4185C79.1776 41.2184 79.2775 40.9183 79.2775 40.6181C79.2775 39.9178 78.6777 39.3176 77.9779 39.3176C77.378 39.3176 76.7782 39.3176 76.5782 39.1175C76.4782 39.0174 76.5782 38.7173 76.5782 38.4172C76.6782 38.117 76.7782 37.7168 76.8781 37.1166L78.1778 32.4145C78.8776 32.5145 79.6774 32.7146 80.3773 32.7146C82.1768 32.7146 83.7764 32.3144 85.2761 31.6141C85.576 31.5141 85.7759 31.314 86.0758 31.1139C86.2758 30.9138 86.5757 30.8138 86.7757 30.6137C87.5755 30.1134 88.1753 29.4131 88.6752 28.7128ZM86.4757 30.3135C86.1758 30.5136 85.9759 30.7137 85.6759 30.8137C85.376 31.0138 85.1761 31.1139 84.8761 31.2139C83.4765 31.9142 81.8769 32.3144 80.1773 32.3144C79.3775 32.3144 78.5777 32.1143 77.7779 32.0143H77.578L76.1783 37.1166C75.9784 37.7168 75.8784 38.117 75.8784 38.4172C75.7784 38.9174 75.7784 39.3176 75.9784 39.5177C76.2783 39.8178 76.7782 39.9178 77.7779 39.9178C78.1778 39.9178 78.5777 40.218 78.5777 40.7182C78.5777 40.9183 78.4777 41.1184 78.3778 41.3185C78.3778 41.4185 78.2778 41.4185 78.2778 41.5185C77.9779 42.0188 77.8779 42.0188 77.6779 42.0188H68.5802C68.1803 42.0188 67.7804 41.7186 67.7804 41.2184C67.7804 41.1184 67.7804 41.1184 67.7804 41.0183L67.8804 40.5181C67.8804 40.5181 67.8804 40.4181 67.8804 40.318C67.8804 40.1179 67.9803 39.9178 67.9803 39.9178C67.9803 39.9178 68.0803 39.8178 68.2803 39.8178C68.3802 39.8178 68.3802 39.8178 68.4802 39.8178C68.5802 39.8178 68.5802 39.8178 68.5802 39.8178H68.8801C69.28 39.8178 69.6799 39.8178 69.8799 39.7177C70.1798 39.6177 70.3797 39.6177 70.4797 39.4176C70.6797 39.2175 70.8796 38.9174 71.0796 38.4172C71.2795 38.017 71.4795 37.5168 71.6794 36.7164L71.7794 36.5163L75.1786 24.5109V24.4109C75.2785 24.0107 75.2785 23.9107 75.3785 23.8106C75.3785 23.8106 75.3785 23.7106 75.4785 23.6105C75.6784 23.1103 75.7784 22.6101 75.6784 22.2099C75.6784 22.1099 75.5785 22.1098 75.4785 22.0098C75.3785 21.9098 75.2785 21.9098 75.0786 21.9098C74.7787 21.9098 74.3788 21.9098 73.8789 21.9098C73.479 21.9098 73.0791 21.6096 73.0791 21.1094C73.0791 21.0094 73.0791 20.9093 73.0791 20.9093L73.279 20.209C73.379 19.9089 73.6789 19.6087 73.9789 19.6087C73.9789 19.6087 73.9789 19.6087 74.0788 19.6087H80.4772H80.6772C81.477 19.6087 82.1768 19.7088 82.8766 19.8088C83.5765 19.9089 84.7762 20.109 85.6759 20.5091C86.4757 20.8093 87.1756 21.3095 87.7754 21.9098C87.8754 22.0098 87.9754 22.1098 88.0753 22.3099C88.1753 22.51 88.2753 22.6101 88.3753 22.7101C89.2751 24.2108 89.2751 26.1116 88.3753 27.8124C88.2753 27.9124 88.2753 28.1125 88.1753 28.2126C87.7754 29.113 87.1756 29.7133 86.4757 30.3135Z" fill="white"/>
<path d="M143.761 32.4144C143.861 32.2143 143.861 32.0142 143.961 31.8142C144.461 30.3135 145.061 28.6127 145.061 26.912V26.3117C145.061 25.5113 144.861 24.2108 144.061 23.1103L143.961 22.9102C143.462 22.3099 142.762 22.0098 141.862 22.0098C139.263 22.0098 136.963 24.2108 135.863 26.1116C135.364 27.012 134.864 28.1125 134.364 29.313C134.264 29.6132 134.164 29.9133 134.064 30.3135C133.964 30.6136 133.864 30.9138 133.764 31.3139C133.364 32.7146 133.164 34.0151 133.164 35.1156V35.4158C133.164 36.016 133.264 36.6163 133.364 37.2166C133.364 37.3166 133.364 37.4167 133.464 37.5167C133.564 38.0169 133.764 38.4171 133.964 38.7173C134.264 39.1174 134.564 39.4176 134.964 39.5176C135.364 39.7177 135.863 39.8177 136.363 39.8177C137.063 39.7177 137.763 39.6177 138.363 39.4176C140.962 38.3171 142.862 35.2157 143.761 32.6145V32.4144ZM143.162 32.4144C142.262 34.9156 140.462 37.9169 138.063 38.9173C137.463 39.1174 136.863 39.3175 136.263 39.3175C135.763 39.3175 135.364 39.2175 135.064 39.1174C134.764 39.0174 134.564 38.7173 134.264 38.4171C134.064 38.117 133.864 37.8169 133.764 37.4167C133.764 37.3166 133.664 37.2166 133.664 37.2166C133.564 36.8164 133.464 36.3162 133.464 35.816V35.5158C133.464 34.4153 133.664 33.0147 134.064 31.514C134.164 31.2139 134.264 30.9138 134.364 30.6136C134.464 30.3135 134.564 29.9133 134.664 29.6132C135.064 28.4126 135.563 27.3121 136.063 26.5118C137.163 24.711 139.263 22.61 141.662 22.61C142.562 22.61 143.162 22.8101 143.561 23.4104L143.661 23.6105C144.161 24.3108 144.461 25.4113 144.461 26.6118V26.7119C144.461 28.3126 143.861 30.0134 143.362 31.7141C143.362 31.9142 143.262 32.2143 143.162 32.4144Z" fill="white"/>
<path d="M149.163 22.81C148.963 22.5098 148.863 22.3097 148.663 22.0096C148.463 21.8095 148.263 21.6094 148.163 21.4093C148.163 21.4093 148.163 21.3093 148.063 21.3093C146.963 20.1087 145.564 19.4084 143.964 19.0082C143.664 18.9082 143.264 18.9082 142.964 18.9082C142.664 18.9082 142.264 18.9082 141.964 18.9082C138.165 18.9082 134.766 20.609 132.067 23.9104C130.567 25.6112 129.567 27.2119 128.868 28.9127C127.668 31.814 127.468 35.1155 128.368 37.6166C128.668 38.617 129.268 39.5174 129.967 40.3178C129.967 40.3178 129.967 40.4178 130.067 40.4178C130.867 41.3182 131.767 41.9185 132.867 42.3187C133.766 42.7189 134.866 42.919 136.166 42.919C136.266 42.919 136.266 42.919 136.366 42.919C138.965 42.919 141.465 42.0186 143.764 40.3178C144.164 40.0177 144.564 39.6175 145.064 39.2173C145.464 38.8171 145.863 38.4169 146.263 38.0168L146.463 37.8167C147.863 36.216 148.863 34.6152 149.563 32.9145C150.262 31.2137 150.662 29.4129 150.662 27.5121V27.412C150.362 25.8113 149.962 24.1105 149.163 22.81ZM149.862 27.6121C149.862 29.3129 149.463 31.1137 148.763 32.8144C148.063 34.5152 146.963 36.1159 145.564 37.8167L145.464 37.9167C145.164 38.3169 144.764 38.617 144.364 39.0172C143.964 39.4174 143.564 39.7175 143.164 40.0177C140.965 41.7184 138.565 42.5188 136.066 42.5188H135.966C134.766 42.4187 133.766 42.2187 132.867 41.9185C131.867 41.5183 131.067 40.9181 130.267 40.1177C130.267 40.1177 130.267 40.1177 130.267 40.0177C129.567 39.2173 129.068 38.4169 128.768 37.4165C127.968 35.0154 128.168 31.914 129.268 29.1128C129.967 27.5121 130.967 25.9113 132.367 24.3106C134.966 21.1092 138.265 19.5085 141.864 19.5085H141.964C142.264 19.5085 142.564 19.5085 142.864 19.5085C143.164 19.5085 143.464 19.6085 143.764 19.6085C145.264 19.9087 146.563 20.609 147.663 21.7095L147.863 21.9095C147.963 22.0096 148.163 22.2097 148.263 22.4098C148.463 22.6099 148.563 22.91 148.763 23.1101C149.463 24.3106 149.862 25.9113 149.862 27.6121Z" fill="white"/>
<path d="M178.556 19.4087H169.759C169.159 19.4087 168.659 19.8089 168.559 20.3091C168.559 20.4091 168.559 20.5092 168.459 20.5092C168.359 20.7093 168.259 21.0094 168.259 21.3095C168.259 22.0099 168.859 22.6101 169.559 22.6101C170.258 22.6101 170.658 22.7102 170.858 22.8102C170.858 22.8102 170.858 22.8102 170.858 22.9103C170.858 22.9103 170.858 23.0103 170.758 23.3104L170.558 24.1108C170.159 25.6115 169.659 27.1121 169.259 28.6128H162.86L163.86 25.4114L163.96 25.2113C164.16 24.511 164.36 23.9107 164.56 23.6106C164.86 22.9103 165.46 22.7102 166.459 22.6101C167.059 22.6101 167.559 22.1099 167.659 21.5096L167.759 21.0094C167.759 20.9094 167.759 20.8093 167.759 20.7093C167.759 20.009 167.159 19.4087 166.459 19.4087H157.862C157.262 19.4087 156.762 19.8089 156.662 20.3091L156.462 20.9094C156.462 21.0094 156.362 21.2095 156.362 21.3095C156.362 22.0099 156.962 22.6101 157.662 22.6101C158.261 22.6101 158.661 22.6101 158.761 22.7102V22.8102C158.761 22.9103 158.761 23.1103 158.661 23.3104C158.561 23.6106 158.561 24.0108 158.361 24.4109L154.762 36.5164V36.6164C154.562 37.2167 154.462 37.8169 154.162 38.2171C154.062 38.5173 153.863 38.8174 153.663 39.0175C153.563 39.0175 153.463 39.1175 153.363 39.1175C153.263 39.1175 152.663 39.2176 152.363 39.2176C151.463 39.2176 150.863 40.3181 150.863 41.1184C150.863 41.8187 151.463 42.419 152.163 42.419H160.661C161.561 42.419 162.16 41.4186 162.16 40.6182C162.16 39.9179 161.561 39.3176 160.861 39.3176C160.461 39.3176 159.961 39.2176 159.861 39.1175C160.061 37.4168 160.761 35.4159 161.361 33.6151C161.561 33.0148 161.761 32.5146 161.861 32.0143H168.259L166.959 36.5164C166.659 37.3167 166.459 37.917 166.259 38.3172C166.06 38.6173 165.96 38.8174 165.86 39.0175C165.86 39.0175 165.66 39.1175 165.56 39.1175H165.46C165.36 39.1175 165.16 39.1175 164.96 39.1175C164.76 39.1175 164.66 39.1175 164.46 39.1175C163.46 39.1175 163.26 39.9179 163.06 40.6182V40.7182C162.96 41.0184 163.06 41.4186 163.26 41.6186C163.46 41.9188 163.86 42.1189 164.36 42.1189H165.26C167.159 42.1189 171.258 42.1189 172.858 42.1189C173.658 42.1189 173.858 41.7187 174.058 41.2185L174.157 40.9183C174.257 40.5182 174.257 40.218 174.058 39.9179C173.658 39.2176 172.758 39.0175 172.058 38.8174C172.258 37.5168 174.457 30.3136 175.357 27.1121C175.657 26.2117 175.857 25.5114 175.957 25.1112C176.257 24.1108 176.557 23.3104 176.857 22.8102C177.057 22.5101 177.557 22.41 178.057 22.31C178.656 22.2099 179.356 22.1099 179.656 21.3095L179.856 20.8093C179.956 20.6092 179.956 20.5092 179.956 20.3091C179.856 20.009 179.256 19.4087 178.556 19.4087ZM179.256 21.0094L179.056 21.5096C178.956 21.9098 178.556 22.0099 177.857 22.1099C177.357 22.2099 176.757 22.31 176.357 22.8102C176.057 23.3104 175.657 24.1108 175.357 25.2113C175.257 25.6115 175.057 26.3118 174.757 27.2122C171.258 39.0175 171.358 39.2176 171.458 39.4177L171.558 39.5177L171.758 39.6177C172.358 39.8178 173.258 40.0179 173.558 40.5182C173.658 40.7182 173.658 40.9183 173.558 41.1184L173.458 41.4186C173.258 41.8187 173.158 42.0188 172.758 42.0188C171.158 42.0188 167.059 42.0188 165.16 42.0188H164.16C163.86 42.0188 163.66 41.9188 163.46 41.7187C163.36 41.6186 163.36 41.4186 163.36 41.2185V41.0184C163.56 40.3181 163.66 39.9179 164.26 39.9179C164.46 39.9179 164.56 39.9179 164.76 39.9179C164.96 39.9179 165.16 39.9179 165.36 39.9179H165.46C165.66 39.9179 165.86 39.8178 165.96 39.7178C166.159 39.5177 166.359 39.3176 166.559 38.9174C166.759 38.4172 167.059 37.8169 167.359 37.0166L167.459 36.8165L168.859 31.9143H161.461L161.361 32.1144C161.161 32.7147 160.961 33.3149 160.761 33.9152C160.161 35.716 159.461 37.7169 159.261 39.4177C159.261 39.5177 159.261 39.7178 159.361 39.8178C159.661 40.218 160.561 40.218 160.861 40.218C161.261 40.218 161.661 40.5182 161.661 41.0184C161.661 41.5186 161.261 42.319 160.661 42.319H152.163C151.763 42.319 151.363 42.0188 151.363 41.5186C151.363 41.0184 151.763 40.218 152.363 40.218C152.763 40.218 153.363 40.118 153.463 40.118C153.663 40.0179 153.863 40.0179 153.963 39.9179C154.162 39.6178 154.362 39.3176 154.562 39.0175C154.762 38.5173 154.962 38.017 155.162 37.3167C155.162 37.3167 155.162 37.3167 155.162 37.2167L158.761 25.1112C158.861 24.611 158.961 24.3109 159.061 23.9107C159.061 23.6106 159.161 23.4105 159.161 23.3104C159.161 23.1103 159.161 22.9103 158.961 22.7102C158.661 22.5101 158.261 22.5101 157.562 22.5101C157.162 22.5101 156.762 22.2099 156.762 21.7097C156.762 21.6097 156.762 21.5096 156.762 21.4096L156.962 20.8093C157.062 20.5092 157.362 20.2091 157.662 20.2091H166.259C166.659 20.2091 167.059 20.5092 167.059 21.0094C167.059 21.1095 167.059 21.1095 167.059 21.2095L166.959 21.7097C166.859 22.1099 166.559 22.31 166.259 22.31C165.26 22.41 164.46 22.6101 163.96 23.6106C163.76 24.1108 163.56 24.7111 163.26 25.5114L163.16 25.7115L162.061 29.3131H169.559V29.113C169.959 27.5123 170.458 25.9116 170.958 24.4109L171.158 23.6106C171.258 23.3104 171.258 23.2104 171.258 23.1104C171.258 22.8102 171.158 22.7102 170.958 22.6101C170.658 22.41 170.158 22.41 169.359 22.41C168.959 22.41 168.559 22.1099 168.559 21.6097C168.559 21.4096 168.659 21.2095 168.659 21.0094C168.659 20.9094 168.759 20.8093 168.759 20.8093C168.859 20.5092 169.159 20.2091 169.459 20.2091H178.256C178.656 20.2091 179.056 20.5092 179.056 21.0094C179.356 20.8093 179.356 20.9094 179.256 21.0094Z" fill="white"/>
<path d="M99.0764 24.9112C99.4763 23.4106 100.076 22.4101 100.576 22.0099C101.476 20.9095 102.576 21.9099 102.975 20.5093H94.1776C93.8777 22.5102 96.577 20.3092 96.577 22.7103C96.577 23.1104 96.377 23.7107 96.0771 24.7112L92.578 36.9166C92.0781 38.4173 91.6782 39.2177 91.1783 39.8179C90.3785 40.8184 89.2788 39.8179 88.8789 41.1185H97.2768C97.4768 39.3177 95.1773 41.2186 95.1773 39.1176C95.1773 38.7174 95.2773 37.9171 95.5772 36.9166L99.0764 24.9112Z" fill="white"/>
<path d="M87.2758 22.6103C85.7762 20.9095 82.6769 20.6094 80.5775 20.6094H74.0791C73.7792 21.91 75.2788 21.2096 75.8786 21.7099C76.2785 22.01 76.4785 22.3101 76.4785 22.9104C76.4785 23.3106 76.2785 23.9109 75.9786 24.9113L72.4795 37.1168C71.9796 38.6174 71.5797 39.5178 70.9798 40.1181C70.0801 41.0185 68.6804 40.0181 68.4805 41.3187H77.4782C77.8781 40.2182 76.4785 41.0185 75.6787 40.4183C75.1788 40.2182 74.9789 39.6179 74.9789 39.2177C74.9789 38.8175 75.1788 38.0172 75.4787 37.0167L77.0783 31.2141C78.1781 31.5143 79.1778 31.6143 80.1776 31.7144C82.377 31.7144 84.3765 31.014 85.8761 29.9135C87.3758 28.613 88.1756 27.1123 88.1756 25.4115C88.3755 24.4111 87.9756 23.4106 87.2758 22.6103ZM77.5782 30.0136L79.2778 24.4111L80.0776 22.01C82.7769 21.5098 85.1763 22.11 85.1763 25.3115C85.1763 26.9122 84.5765 27.9126 83.5767 29.1132C81.8771 30.7139 79.6777 30.914 77.5782 30.0136Z" fill="white"/>
<path d="M132.969 24.8107C130.27 27.9121 129.07 30.9135 129.07 34.315C129.07 36.4159 129.57 38.1167 130.87 39.5173C132.27 41.018 133.869 41.6183 136.069 41.7183C139.368 41.7183 142.367 40.1176 144.966 37.2163C147.666 34.1149 149.065 30.9135 149.065 27.612C149.065 25.511 148.366 23.6102 147.166 22.3096C143.067 17.9076 136.169 20.909 132.969 24.8107ZM136.269 40.7178C134.869 40.7178 133.969 40.2176 133.269 39.2172C132.569 38.2167 132.27 36.9161 132.27 35.5155C132.27 31.6138 134.069 25.9112 137.068 23.4101C138.568 22.0095 140.068 21.3091 141.767 21.4092C144.666 21.4092 145.866 24.1104 145.866 26.6115C145.866 30.6133 143.767 35.9157 140.867 38.6169C139.368 40.1176 137.868 40.6178 136.269 40.7178Z" fill="white"/>
<path d="M112.171 22.7103C112.171 23.2105 111.671 24.7112 110.871 27.8125C109.971 30.6138 108.971 33.1149 107.872 35.516C106.672 37.717 105.772 39.1176 104.872 39.8179C104.173 40.4182 103.373 40.6183 102.673 40.6183L100.773 47.1212L101.373 47.2212C102.773 43.3195 104.872 41.3186 107.972 41.3186L115.87 41.4186C116.869 41.4186 117.569 41.6187 118.269 42.219C118.869 42.8193 119.169 43.6196 119.169 44.8202C119.169 45.4204 119.069 46.2208 118.769 47.1212H119.369L120.968 40.6183C120.169 40.7183 119.569 40.6183 119.169 40.4182C118.769 40.2181 118.669 39.6178 118.669 39.2177C118.669 38.7174 118.669 38.3173 118.769 37.9171L122.868 23.8108C123.168 22.8103 123.668 22.11 124.168 21.8099C125.167 21.3096 126.067 21.6098 126.367 20.5093H109.871C109.471 22.6102 112.171 20.5093 112.171 22.7103ZM120.369 21.6098L115.57 37.717C115.27 38.7174 114.97 39.3177 114.57 39.6178C114.17 40.018 113.57 40.1181 112.97 40.1181L105.972 40.2181C108.571 37.4169 110.971 31.114 113.37 21.6098H120.369Z" fill="white"/>
<path d="M53.5879 22.8099C53.5879 23.2101 53.3879 23.8104 52.988 24.8108L49.5889 37.0163C49.089 38.617 48.5891 39.5174 48.0892 40.0176C47.1894 41.1181 45.9897 40.0176 45.5898 41.3182H62.2857L64.2852 35.6157C63.8853 35.7157 63.6854 35.6157 63.4854 36.0158C63.0855 37.0163 62.0858 37.9167 60.886 38.9171C59.3864 39.9176 57.6868 40.3178 55.5874 40.3178L53.5879 40.4178C52.5881 40.4178 51.9883 39.9176 51.9883 39.4174C51.9883 39.1172 52.0882 38.7171 52.1882 38.517L54.2877 31.0136L56.887 31.1136C57.8868 31.1136 58.4866 31.1136 58.7866 31.5138C59.0865 31.814 59.2864 32.2141 59.2864 32.8144C59.2864 33.4147 59.1865 33.8149 58.9865 34.4151H59.6863L61.7858 27.0118H61.186C60.5861 29.0127 59.2864 29.9131 57.087 29.9131H54.6876L56.5871 22.7099C56.887 21.5093 56.7871 21.6094 57.8868 21.7094L61.086 21.8095C63.5854 21.8095 64.985 22.8099 64.985 24.9109C64.985 25.5111 64.8851 25.6112 65.4849 25.6112L66.7846 20.709H51.1885C50.9885 22.6098 53.5879 20.4088 53.5879 22.8099Z" fill="white"/>
<path d="M172.159 23.0105C172.159 23.4106 171.959 24.0109 171.559 25.0113L170.16 29.9135H161.062L162.561 25.0113C163.061 23.4106 163.561 22.2101 164.161 21.91C165.061 21.2096 166.161 21.8099 166.361 20.6094H157.763C157.363 22.01 159.962 20.4093 159.962 22.8104C159.962 23.2105 159.862 23.8108 159.562 24.8113L155.963 37.2168C155.563 38.8175 155.063 39.6179 154.563 40.2182C153.664 41.1186 152.564 40.2182 152.164 41.4187H160.662C161.062 40.0181 158.562 41.5187 158.562 39.5178C158.562 39.1177 158.762 38.2173 159.062 37.2168L160.862 31.2141H169.86L168.16 37.3169C167.56 39.0176 167.06 40.0181 166.461 40.5183C165.361 41.1186 164.461 40.3182 164.161 41.6188C164.161 41.6188 170.759 41.6188 172.659 41.6188C173.159 40.3182 170.46 41.3187 170.36 39.818L174.559 25.3115C175.058 23.6107 175.658 22.5102 176.158 22.2101C177.058 21.6098 178.158 22.01 178.458 20.9095H169.66C169.36 22.2101 172.159 20.6094 172.159 23.0105Z" fill="white"/>
<path d="M196.449 39.1176H195.949L197.449 31.6143H198.249C200.048 31.6143 200.948 32.4146 200.948 34.0153C200.948 34.2154 200.948 34.4155 200.948 34.6156V34.7156C200.948 34.9157 200.848 35.1158 200.848 35.3159C200.248 37.817 198.848 39.1176 196.449 39.1176ZM196.349 38.8175H196.449C198.649 38.8175 199.948 37.6169 200.348 35.2159C200.348 35.0158 200.448 34.8157 200.448 34.7156V34.6156C200.448 34.4155 200.448 34.3155 200.448 34.1154C200.448 32.6147 199.748 32.0144 198.149 32.0144H197.649L196.349 38.8175Z" fill="white"/>
<path d="M206.549 19.4088H193.052C192.652 19.4088 192.252 19.5088 192.052 19.8089C191.952 20.009 191.752 20.2091 191.752 20.5093C191.652 21.7098 192.252 22.8103 193.552 22.9103H193.652L190.652 38.7174C190.652 38.8175 190.552 39.0176 190.453 39.1176C190.353 39.2176 190.053 39.2176 189.853 39.2176C189.453 39.2176 189.153 39.3177 188.853 39.6178C188.353 40.018 188.053 40.6183 187.953 41.2185V42.5191H196.451C199.85 42.5191 203.749 41.8188 205.849 38.8175C206.549 37.9171 206.948 36.8166 207.148 35.7161C207.148 35.516 207.248 35.3159 207.248 35.0158C207.248 34.7156 207.348 34.5155 207.348 34.2154C207.348 33.315 207.148 32.4146 206.648 31.6142C205.149 29.0131 201.55 28.5128 198.75 28.4128L199.65 23.5106H201.25C201.75 23.5106 202.25 23.5106 202.749 23.6107C203.049 23.7107 203.749 23.8107 203.849 24.1109C203.849 24.1109 203.849 24.1109 203.849 24.2109C203.849 24.411 203.849 24.5111 203.749 24.7111C203.749 25.0113 203.649 25.3114 203.749 25.6115C203.949 26.3119 204.749 26.612 205.449 26.712C205.549 26.712 205.749 26.712 205.849 26.712C206.149 26.712 206.549 26.712 206.648 26.3119C206.848 25.3114 207.048 24.411 207.248 23.4106C207.348 22.8103 207.548 22.11 207.648 21.5097C207.648 21.3096 207.748 21.0095 207.748 20.8094C207.748 20.7094 207.848 20.5093 207.848 20.4092C207.848 19.7089 207.148 19.3087 206.549 19.4088ZM206.249 26.2118C206.249 26.3119 205.649 26.2118 205.549 26.2118C205.449 26.2118 204.449 26.1118 204.349 25.5115C204.249 25.1113 204.449 24.7111 204.449 24.311C204.449 23.2105 202.05 23.1104 201.35 23.1104H199.35L198.251 28.913H198.351C200.95 28.913 204.849 29.2132 206.349 31.8143C206.748 32.5146 206.948 33.315 206.948 34.2154C206.948 34.4155 206.948 34.7156 206.848 34.9157C206.848 35.1158 206.748 35.3159 206.748 35.516C206.549 36.5164 206.149 37.5169 205.549 38.4173C203.549 41.2185 199.75 41.9189 196.551 41.9189H188.553V41.1185C188.553 40.6183 188.853 40.2181 189.253 39.918C189.953 39.3177 191.052 40.018 191.252 38.8175L194.352 22.6102V22.5102C194.252 22.4101 193.852 22.4101 193.752 22.4101C192.752 22.3101 192.252 21.4097 192.452 20.5093C192.452 20.5093 192.452 20.3092 192.652 20.1091C192.852 19.909 193.252 19.909 193.252 19.909H206.648C206.648 19.909 207.348 19.8089 207.348 20.4092C207.448 20.8094 206.249 26.2118 206.249 26.2118Z" fill="white"/>
<path d="M193.753 21.6098C194.053 21.6098 195.152 21.7099 195.052 22.6103C195.052 22.7103 195.052 22.7103 195.052 22.8104L191.953 38.9176C191.553 40.7184 189.954 40.2182 189.654 40.5183C189.254 40.8184 189.254 41.2186 189.254 41.2186H196.552C202.151 41.1186 205.25 39.1177 206.05 35.416C206.05 35.2159 206.15 35.0158 206.15 34.8157C206.15 34.6157 206.15 34.4156 206.15 34.2155C206.15 31.2141 203.55 29.6134 198.252 29.6134H197.252L198.652 22.3101H201.251C203.15 22.3101 205.05 22.8104 205.05 24.311C205.05 24.7112 204.95 25.1114 204.95 25.4115C204.95 25.6116 205.55 25.5116 205.55 25.5116L206.65 20.6094H193.053C193.053 20.6094 192.953 21.5098 193.753 21.6098ZM196.952 31.1141H198.152C200.351 31.2141 201.451 32.2146 201.451 34.1154C201.451 34.3155 201.451 34.5156 201.451 34.7157C201.451 34.9158 201.351 35.1159 201.351 35.416C200.851 38.2173 199.251 39.6179 196.552 39.7179H195.352L196.952 31.1141Z" fill="white"/>
<path d="M229.439 24.5109L229.539 24.3108C229.639 24.1107 229.739 23.9106 229.939 23.7105C230.039 23.5104 230.139 23.4104 230.239 23.3103C230.239 23.2103 230.339 23.2103 230.439 23.1102C230.538 23.1102 230.738 22.9102 232.038 22.61C232.938 22.4099 233.438 21.4095 233.538 20.6091C233.638 20.2089 233.538 19.7087 233.138 19.4086C232.938 19.3085 232.638 19.2085 232.338 19.2085H232.238C232.038 19.2085 231.838 19.2085 231.738 19.2085C231.538 19.2085 231.438 19.2085 231.238 19.2085C231.138 19.2085 231.138 19.2085 231.038 19.2085C230.339 19.2085 229.539 19.2085 228.639 19.2085C228.539 19.2085 228.339 19.2085 228.239 19.2085C227.539 19.2085 226.539 19.2085 225.84 19.2085H225.54C225.44 19.2085 225.44 19.2085 225.34 19.2085C225.24 19.2085 225.24 19.2085 225.14 19.2085C224.84 19.2085 224.34 19.2085 224.04 19.6087C223.74 19.9088 223.64 20.409 223.64 20.409C223.64 20.409 223.64 20.409 223.64 20.5091C223.64 21.3094 224.04 22.3099 225.04 22.51C225.14 22.51 225.34 22.61 225.54 22.7101C225.34 23.2103 225.04 23.8106 224.74 24.3108C223.94 25.8115 223.14 27.2121 222.341 28.6127C221.941 29.313 221.541 29.9133 221.141 30.6136L219.141 24.3108C219.141 24.2107 219.041 24.0106 219.041 23.9106C218.941 23.7105 218.941 23.5104 218.841 23.2103C218.841 23.1102 218.741 23.0102 218.741 23.0102C219.241 22.9102 219.741 22.8101 220.141 22.61C220.841 22.2098 221.241 21.4095 221.241 20.5091C221.241 20.409 221.241 20.0089 220.941 19.7087C220.641 19.4086 220.141 19.3085 220.041 19.3085C219.741 19.3085 219.341 19.3085 219.041 19.3085C218.741 19.3085 218.541 19.3085 218.242 19.3085C217.342 19.3085 216.342 19.3085 215.142 19.3085H214.942C213.943 19.3085 213.443 19.3085 212.443 19.3085C212.343 19.3085 212.343 19.3085 212.243 19.3085C211.943 19.3085 211.743 19.3085 211.443 19.3085C211.143 19.3085 210.943 19.3085 210.643 19.3085C210.643 19.3085 210.643 19.3085 210.543 19.3085C210.344 19.3085 209.944 19.3085 209.644 19.7087C209.344 20.0089 209.344 20.409 209.344 20.5091C209.344 21.4095 209.844 22.2098 210.643 22.51C210.843 22.61 211.143 22.7101 211.343 22.7101C211.443 22.7101 211.443 22.7101 211.543 22.7101C211.643 22.7101 211.743 22.8101 211.843 22.8101L211.943 22.9102C212.043 23.0102 212.043 23.1102 212.143 23.2103L212.243 23.4104C212.343 23.6105 212.443 23.8106 212.443 24.1107L216.742 37.3166C216.542 37.9169 216.242 38.5171 215.942 39.0174C215.742 39.3175 215.542 39.7177 215.342 40.1179C214.942 40.7181 214.442 41.1183 214.043 41.2184C213.943 41.2184 213.743 41.3184 213.543 41.3184C213.443 41.3184 213.343 41.3184 213.243 41.3184C213.143 41.3184 213.143 41.3184 213.043 41.3184L211.343 41.2184C211.143 41.2184 210.843 41.4184 210.843 41.6185L210.443 44.1197C210.443 44.2197 210.443 44.4198 210.543 44.5198C210.643 44.6199 210.743 44.7199 210.843 44.7199L211.543 44.82C212.243 44.92 212.843 45.0201 213.443 45.0201C213.643 45.0201 213.743 45.0201 213.843 45.0201C215.042 45.0201 215.842 44.82 217.042 44.1197C217.942 43.6194 219.041 42.3189 220.041 40.518C220.341 40.0178 220.641 39.4176 221.041 38.8173C221.241 38.5171 221.341 38.3171 221.541 38.0169C221.741 37.7168 221.841 37.4167 222.041 37.1165C222.441 36.5163 222.84 35.8159 223.14 35.2157C224.04 33.815 224.94 32.3144 225.84 30.8137C226.939 28.9128 228.039 27.112 229.139 25.2112L229.439 24.5109ZM225.24 30.7137C223.94 32.8146 222.74 34.9155 221.441 37.0165C221.141 37.6167 220.741 38.117 220.441 38.7172C220.141 39.3175 219.741 39.8177 219.441 40.418C218.841 41.5185 217.742 43.2193 216.642 43.8195C215.542 44.4198 214.842 44.6199 213.743 44.6199C213.643 44.6199 213.443 44.6199 213.343 44.6199C212.743 44.6199 212.043 44.5198 211.443 44.4198L210.743 44.3197L211.143 41.8186L212.843 41.9187C213.043 41.9187 213.243 41.9187 213.443 41.9187C213.643 41.9187 213.843 41.9187 214.043 41.8186C214.642 41.6185 215.242 41.0183 215.642 40.518C215.942 40.1179 216.142 39.8177 216.342 39.4176C216.642 38.8173 216.942 38.117 217.242 37.5167L212.843 24.1107C212.743 23.8106 212.643 23.5104 212.543 23.3103C212.443 23.1102 212.443 23.0102 212.343 22.9102C212.343 22.8101 212.243 22.7101 212.143 22.61C211.943 22.51 211.843 22.4099 211.643 22.4099C211.343 22.3099 211.143 22.2098 210.843 22.1098C210.244 21.8097 209.844 21.2094 209.844 20.5091C209.844 20.5091 209.844 20.2089 210.044 20.0089C210.244 19.8088 210.443 19.8088 210.543 19.8088C211.043 19.8088 211.543 19.8088 212.143 19.8088C212.243 19.8088 212.243 19.8088 212.343 19.8088C213.343 19.8088 213.943 19.8088 214.842 19.8088C214.942 19.8088 214.942 19.8088 215.042 19.8088C216.042 19.8088 217.142 19.8088 218.142 19.8088C218.741 19.8088 219.341 19.8088 219.941 19.8088C219.941 19.8088 220.341 19.8088 220.541 20.0089C220.741 20.2089 220.741 20.5091 220.741 20.5091C220.741 21.1093 220.541 21.8097 219.941 22.1098C219.541 22.3099 218.841 22.4099 218.441 22.51C218.441 22.51 218.342 22.51 218.242 22.61V22.7101C218.242 22.9102 218.342 23.2103 218.342 23.4104C218.441 23.8106 218.541 24.1107 218.641 24.5109L220.941 31.8141C221.541 30.8137 222.141 29.8132 222.74 28.8128C223.54 27.4122 224.34 26.0115 225.14 24.5109C225.44 24.0106 225.74 23.4104 225.94 22.9102C225.94 22.8101 226.04 22.61 226.14 22.4099C225.84 22.2098 225.34 22.1098 225.04 22.0098C224.34 21.8097 224.04 21.1093 224.04 20.5091C224.04 20.5091 224.04 20.2089 224.24 20.0089C224.44 19.8088 224.64 19.8088 225.04 19.8088C225.14 19.8088 225.34 19.8088 225.44 19.8088C226.14 19.8088 227.239 19.8088 228.039 19.8088C228.239 19.8088 228.339 19.8088 228.439 19.8088C229.239 19.8088 230.039 19.8088 230.838 19.8088C230.938 19.8088 230.938 19.8088 231.038 19.8088C231.438 19.8088 231.738 19.8088 232.138 19.8088C232.138 19.8088 232.138 19.8088 232.238 19.8088C232.338 19.8088 232.638 19.8088 232.838 19.9088C233.138 20.1089 233.038 20.6091 233.038 20.6091C233.038 21.3094 232.638 22.0098 231.938 22.1098C231.538 22.2098 230.538 22.51 230.139 22.7101C230.039 22.8101 229.939 22.9102 229.839 23.0102C229.739 23.1102 229.639 23.3103 229.539 23.4104C229.339 23.7105 229.239 23.9106 229.039 24.2107C227.739 26.4117 226.44 28.6127 225.24 30.7137Z" fill="white"/>
<path d="M229.739 22.1099C230.239 21.8098 231.439 21.4096 231.738 21.3096C232.238 21.2095 232.338 20.4092 232.338 20.4092C231.738 20.4092 225.44 20.4092 224.84 20.4092C224.84 20.4092 224.84 21.1095 225.24 21.2095C225.94 21.4096 226.64 21.7098 226.74 21.9099C226.84 22.0099 226.84 22.1099 226.84 22.21C226.84 22.4101 226.74 22.7102 226.54 23.1104C226.34 23.5106 226.04 24.1108 225.64 24.8112C224.94 26.2118 224.14 27.6124 223.241 29.1131C222.441 30.6138 221.541 32.1144 220.541 33.6151L220.141 32.0144L217.842 24.7111C217.742 24.3109 217.642 24.0108 217.542 23.6106C217.442 23.3105 217.342 23.0103 217.342 22.7102C217.342 22.5101 217.442 22.31 217.542 22.1099C217.642 21.9099 217.842 21.8098 218.142 21.8098C218.142 21.8098 219.142 21.6097 219.441 21.4096C219.941 21.2095 219.841 20.5092 219.841 20.5092C218.842 20.5092 210.944 20.5092 210.344 20.5092C210.344 20.5092 210.344 21.2095 210.844 21.4096C211.344 21.6097 211.843 21.6097 212.343 22.0099C212.443 22.1099 212.643 22.31 212.743 22.5101C212.843 22.7102 212.943 22.9103 213.043 23.1104C213.143 23.3105 213.243 23.6106 213.343 24.0108L217.742 37.7169C217.742 37.7169 216.842 40.018 215.942 41.2185C214.543 43.1194 213.343 42.8192 212.543 42.9193H211.543L211.344 44.0198C211.943 44.1198 212.643 44.1198 213.143 44.2199C213.643 44.2199 214.743 44.3199 216.142 43.5195C217.242 42.9193 218.342 40.9184 218.642 40.4181C218.942 39.8179 219.342 39.3177 219.641 38.7174C219.941 38.2172 220.341 37.6169 220.641 37.0166C221.941 34.9157 223.141 32.8147 224.44 30.7138C225.74 28.6129 226.94 26.4119 228.239 24.2109C228.439 23.9108 228.539 23.6106 228.739 23.4105C228.839 23.2104 229.039 23.0103 229.139 22.8103C229.439 22.4101 229.639 22.21 229.739 22.1099Z" fill="white"/>
<path d="M239.938 39.3177C240.138 39.3177 240.238 39.3177 240.338 39.2177C240.538 39.2177 240.638 39.1176 240.738 39.0176L240.838 38.9176C240.838 38.9176 240.938 38.8175 241.038 38.5174C241.138 38.2172 241.338 37.9171 241.438 37.4169L245.837 22.4102H240.638V22.6102C239.539 27.1123 238.339 30.8139 237.239 33.7152C236.439 35.9162 235.54 37.617 234.64 39.0176L234.34 39.4178L239.938 39.3177ZM237.739 33.8153C238.839 30.914 240.038 27.2123 241.138 22.9104H245.337L241.138 37.2168V37.3168C241.038 37.8171 240.838 38.1172 240.738 38.3173C240.638 38.4173 240.638 38.5174 240.638 38.5174L240.538 38.6174C240.538 38.6174 240.538 38.6174 240.438 38.7175C240.338 38.7175 240.138 38.7175 239.938 38.7175L235.54 38.8175C236.139 37.5169 236.939 35.8162 237.739 33.8153Z" fill="white"/>
<path d="M252.737 19.3086H236.341C235.741 19.3086 235.141 19.8088 235.041 20.4091L234.941 21.1094C234.841 21.5096 234.941 21.8097 235.241 22.1099C235.441 22.41 235.841 22.6101 236.241 22.6101H236.341C237.141 22.6101 237.341 22.7101 237.441 22.7101C237.441 22.9102 237.241 23.7106 236.941 24.611C236.241 27.1121 235.641 29.213 234.841 31.314C234.441 32.4145 233.942 33.515 233.342 34.8155C232.842 35.816 232.342 36.7164 231.842 37.3167C231.442 37.9169 230.742 38.7173 230.043 39.0174C229.843 39.1175 229.643 39.1175 229.243 39.1175C228.643 39.1175 228.143 39.5177 228.043 40.0179L226.144 46.5208C226.144 46.6208 226.144 46.6208 226.144 46.7209C226.044 47.4212 226.344 47.9214 227.143 48.2216L227.743 48.3216C227.843 48.3216 227.843 48.3216 227.943 48.3216C228.443 48.3216 228.943 48.0215 229.143 47.4212C229.743 45.7204 230.542 44.4198 231.442 43.5194C232.342 42.7191 233.342 42.3189 234.541 42.3189L242.24 42.419H242.34C242.739 42.419 243.039 42.419 243.239 42.519H243.339C243.539 42.619 243.739 42.7191 243.939 42.8191C244.239 43.1193 244.439 43.7195 244.439 44.5199C244.439 44.9201 244.439 45.3203 244.339 45.7204C244.339 45.9205 244.239 46.0206 244.239 46.0206C244.239 46.1206 244.239 46.2207 244.139 46.3207C244.139 46.4207 244.039 46.6208 244.039 46.7209C244.039 47.4212 244.639 48.0215 245.339 48.0215H246.139C246.638 47.9214 247.038 47.6213 247.238 47.1211L248.838 40.7182C248.938 40.5181 248.938 40.4181 248.838 40.218C248.738 39.5177 248.138 39.0174 247.438 39.1175C247.138 39.1175 246.938 39.1175 246.738 39.1175C246.638 39.1175 246.638 39.1175 246.638 39.0174C246.538 38.9174 246.538 38.7173 246.638 38.017L250.637 24.1107V24.0107C250.837 23.5105 251.037 23.1103 251.237 22.8102C251.437 22.51 251.937 22.51 252.337 22.41C252.937 22.3099 253.737 22.2099 253.937 21.4095V21.0094C253.937 20.9093 254.037 20.7092 254.037 20.6092C253.937 19.9089 253.437 19.3086 252.737 19.3086ZM253.437 20.8093L253.237 21.4095C253.137 21.8097 252.737 21.9098 252.037 22.0098C251.537 22.1098 250.937 22.2099 250.637 22.6101C250.338 22.9102 250.138 23.4104 249.938 24.0107L245.939 38.017C245.739 38.7173 245.739 39.1175 245.939 39.4176C246.039 39.6177 246.239 39.7177 246.439 39.7177C246.638 39.7177 246.938 39.7177 247.238 39.7177C247.638 39.7177 248.038 40.0179 248.138 40.4181C248.138 40.5181 248.138 40.6181 248.138 40.7182L246.538 47.1211C246.439 47.4212 246.139 47.7213 245.839 47.7213H245.239C244.839 47.7213 244.439 47.4212 244.439 46.921C244.439 46.8209 244.439 46.7209 244.439 46.6208C244.439 46.5208 244.539 46.4207 244.539 46.3207C244.539 46.2207 244.539 46.1206 244.639 46.0206C244.739 45.5203 244.839 45.1202 244.839 44.72C244.839 43.7195 244.639 43.1193 244.139 42.619C243.939 42.4189 243.639 42.3189 243.339 42.2189C243.339 42.2189 243.339 42.2189 243.239 42.2189C242.939 42.1188 242.639 42.1188 242.24 42.1188H242.14L234.441 42.0188C233.142 42.0188 231.942 42.419 231.042 43.3194C230.043 44.2198 229.243 45.5203 228.643 47.4212C228.543 47.7213 228.243 47.9214 227.943 47.9214H227.843L227.243 47.8214C226.543 47.6213 226.543 47.2211 226.543 46.921V46.8209L228.443 40.318C228.543 40.0179 228.843 39.8178 229.143 39.8178C229.543 39.8178 229.743 39.8178 230.043 39.7177C230.942 39.4176 231.642 38.6172 232.142 37.8169C232.642 37.1166 233.142 36.3162 233.642 35.2157C234.242 33.9151 234.741 32.7146 235.141 31.6141C235.941 29.5132 236.641 27.4122 237.241 24.9111C237.641 23.6105 237.741 23.0103 237.741 22.8102C237.741 22.41 237.141 22.3099 236.941 22.3099C236.741 22.3099 236.441 22.2099 236.041 22.2099H235.941C235.741 22.2099 235.541 22.1098 235.341 21.9098C235.241 21.7097 235.141 21.5096 235.141 21.3095L235.241 20.6092C235.241 20.209 235.641 19.9089 236.041 19.9089H252.437C252.837 19.9089 253.237 20.209 253.237 20.7092C253.437 20.7092 253.437 20.7092 253.437 20.8093Z" fill="white"/>
<path d="M238.737 22.7102C238.737 23.2104 238.237 24.7111 237.437 27.8125C236.538 30.6138 235.538 33.1149 234.438 35.4159C233.238 37.6169 232.339 39.0175 231.439 39.6178C230.739 40.2181 230.039 40.4181 229.239 40.4181L227.34 46.9211L227.94 47.0211C229.339 43.1194 231.439 41.1185 234.538 41.1185L242.336 41.2185C243.336 41.2185 244.036 41.4186 244.736 42.0189C245.335 42.6191 245.635 43.3194 245.635 44.62C245.635 45.2203 245.535 46.0207 245.235 46.9211H245.835L247.435 40.4181C246.635 40.5182 246.035 40.4181 245.635 40.2181C245.235 40.018 245.135 39.4177 245.135 39.0175C245.135 38.5173 245.135 38.1171 245.235 37.7169L249.334 23.7107C249.634 22.7102 250.134 22.0099 250.634 21.7098C251.634 21.2095 252.534 21.5097 252.834 20.4092H236.438C236.038 22.6102 238.737 20.5092 238.737 22.7102ZM246.935 21.6097L242.236 37.6169C241.936 38.6173 241.636 39.2176 241.236 39.5177C240.837 39.9179 240.237 40.018 239.737 40.018L232.838 40.118C235.438 37.3168 237.837 31.0139 240.137 21.6097H246.935Z" fill="white"/>
<path d="M19.9944 46.7211C28.8922 46.7211 36.1904 39.4178 36.1904 30.4138C36.1904 21.4097 28.9922 14.1064 19.9944 14.1064C10.9967 14.1064 3.89844 21.4097 3.89844 30.4138C3.89844 39.4178 11.0967 46.7211 19.9944 46.7211Z" fill="#6BB2DF"/>
<path d="M36.2873 29.7131C36.2873 29.8131 36.2873 29.8131 36.2873 29.9132C36.2873 30.0132 36.2873 30.1133 36.2873 30.2133C36.2873 38.6171 29.789 45.7203 21.691 46.4206L26.0899 33.7149L35.8874 27.312C35.9874 28.1124 36.0874 28.9127 36.2873 29.7131ZM18.7917 46.4206C10.6937 45.7203 4.29529 38.8172 4.19531 30.6135C4.19531 30.2133 4.19531 29.9132 4.19531 29.7131C4.29529 28.9127 4.39526 28.1124 4.59521 27.312L14.3928 33.7149L18.7917 46.4206Z" fill="#038342"/>
<path d="M21.2941 46.621L25.893 33.7152L35.9905 27.1123L36.3904 29.7134V29.9135C36.3904 30.0136 36.3904 30.1136 36.3904 30.2136C36.3904 38.6174 29.792 45.8206 21.594 46.621H21.2941ZM26.2929 33.8153L21.894 46.2208C29.892 45.3204 36.0904 38.4173 36.0904 30.2136C36.0904 30.1136 36.0904 30.1136 36.0904 29.9135V29.7134L35.6905 27.6125L26.2929 33.8153ZM18.9947 46.621H18.6948C10.3968 45.8206 3.99841 38.9175 3.89844 30.5138V29.6134L4.19836 27.0122L14.2959 33.6152L18.9947 46.621ZM4.49829 27.6125L4.09839 29.7134V30.6138C4.19836 38.7175 10.3968 45.4205 18.2949 46.2208L13.9959 33.8153L4.49829 27.6125Z" fill="#221F1F"/>
<path d="M20.0951 13.606C29.1929 13.606 36.591 21.1093 36.591 30.3134C36.591 34.9155 34.6915 39.0173 31.7922 42.1187C28.893 45.1201 24.694 47.0209 20.0951 47.0209C10.9974 47.0209 3.69922 39.5176 3.69922 30.3134C3.69922 25.7114 5.59875 21.6095 8.49803 18.5082C11.4973 15.5068 15.5963 13.606 20.0951 13.606ZM20.0951 14.3063C15.7962 14.3063 11.7972 16.1071 8.89793 18.9083C6.09862 21.7096 4.29907 25.8114 4.29907 30.2134C4.29907 38.9173 11.3973 46.1205 20.0951 46.1205C24.3941 46.1205 28.3931 44.3197 31.2924 41.5185C34.1916 38.7172 35.8912 34.6154 35.8912 30.2134C35.8912 21.5095 28.893 14.3063 20.0951 14.3063Z" fill="#221F1F"/>
<path d="M19.9984 56.025L13.9999 33.815L10.3008 31.3139V23.8105L17.299 28.1125L19.9984 39.5176L22.9976 28.2125L29.9959 23.9106V31.414L26.5967 33.9151L19.9984 56.025ZM11.0006 31.1138L14.6997 33.6149L20.0983 53.924L25.8969 33.5149L29.396 31.1138V25.1111L23.4975 28.5127L19.9984 42.0187L16.6992 28.6127L10.9006 25.0111L11.0006 31.1138Z" fill="black"/>
<path d="M10.6016 31.2137V24.4106L17 28.3124L19.9992 40.718L23.1984 28.3124L29.5968 24.4106V31.1136L26.0977 33.6148L19.9992 54.9243L14.3006 33.6148L10.6016 31.2137Z" fill="#BFCA30"/>
<path d="M19.8955 25.5117C18.6958 25.5117 17.4961 24.6113 17.4961 23.1106C17.4961 22.1101 18.0959 21.1097 18.6958 20.0092C18.7958 19.9092 18.8957 19.609 18.9957 19.509C19.1957 19.1088 19.3956 18.8087 19.5956 18.5085L19.8955 18.0083L20.0954 18.5085C20.2954 19.0087 20.5953 19.4089 20.8952 20.0092C21.5951 21.2097 22.1949 22.3102 22.1949 23.2106C22.2949 24.5112 21.0952 25.5117 19.8955 25.5117ZM19.8955 19.1088C19.7955 19.2088 19.6955 19.509 19.5956 19.609C19.4956 19.7091 19.3956 20.0092 19.2956 20.1092C18.5958 21.2097 18.0959 22.1101 18.0959 22.9105C18.0959 24.111 18.9957 24.7113 19.7955 24.7113C20.5953 24.7113 21.4951 23.9109 21.4951 22.8105C21.4951 22.0101 20.8952 20.9096 20.2954 19.9092C20.2954 19.8091 20.0954 19.4089 19.8955 19.1088Z" fill="#221F1F"/>
<path d="M19.8964 18.5083C20.6962 20.2091 21.8959 21.7097 21.8959 23.0103C21.8959 24.2109 20.8961 25.2113 19.8964 25.2113C18.8966 25.2113 17.7969 24.4109 17.7969 23.1104C17.7969 22.21 18.3967 21.1095 18.9966 20.109C19.3965 19.6088 19.5964 19.0085 19.8964 18.5083Z" fill="#FBED1D"/>
<path d="M9.69979 26.1119C9.39986 26.2119 9.09994 26.2119 8.80001 26.2119C7.70029 26.312 5.20091 26.2119 3.80126 25.9118C2.4016 25.7117 0.802 25.2115 0.502075 24.6112C-0.0977762 23.6107 -0.197751 23.0105 0.702025 21.2097C1.6018 19.2088 3.30138 17.0078 5.90073 14.1065C8.40011 11.5053 12.4991 9.40438 16.3981 8.60402C17.8978 8.30388 19.0975 8.70406 20.1972 8.90415L20.997 9.0042L22.9965 9.10424C24.6961 9.40438 26.2957 10.0046 26.5956 11.3052C27.0955 13.106 25.8958 15.4071 23.5963 17.408C20.3971 20.1092 17.5978 22.4102 15.0984 23.9109C12.699 25.1114 11.1994 25.8117 9.69979 26.1119Z" fill="#DEB53A"/>
<path d="M23.696 9.30395C22.8962 9.20391 21.2966 8.90377 20.4968 8.70368C16.5978 8.00337 9.59954 10.7046 6.00043 14.4062C3.3011 17.3075 1.60153 19.6086 0.701751 21.5094C-0.0980507 23.4103 -0.0980507 23.8105 0.5018 24.7109C0.701751 25.2111 2.20138 25.7113 3.70101 26.0114C5.00068 26.2115 7.60004 26.4116 8.69976 26.3116C10.2994 26.1115 11.799 25.6113 14.7982 24.0105C17.3976 22.5099 20.2969 20.2088 23.4961 17.4076C27.995 13.7059 27.5951 9.90422 23.696 9.30395Z" fill="#FBED1D"/>
<path d="M3.89774 16.8073C2.39811 18.6081 1.39836 20.1088 0.798507 21.4093C0.0986805 22.81 0.0986805 23.4102 0.298631 24.0105C0.398606 23.9105 0.298631 23.9105 1.49833 22.2097C1.89823 21.5094 3.49784 21.5094 4.09769 21.6094C7.09694 21.7095 17.8943 21.5094 24.2927 13.4058L3.89774 16.8073Z" fill="#E9D817"/>
<path d="M24.495 13.0059C24.595 12.9059 24.595 12.5057 24.595 12.4057C24.6949 6.00278 19.9961 0.600363 13.8976 0.100139C7.49921 -0.30004 1.80062 4.80225 1.5007 11.6053C1.40072 14.5066 2.20052 17.5079 2.90035 19.3087C3.00033 19.7089 4.59993 20.1091 4.89985 20.1091C13.7976 20.8094 21.4957 17.8081 24.495 13.0059Z" fill="#6F6E6F"/>
<path d="M24.495 13.0059C24.595 12.9059 24.595 12.5057 24.595 12.4057C24.6949 6.00278 19.9961 0.600363 13.8976 0.100139C7.49921 -0.30004 1.80062 4.80225 1.5007 11.6053C1.40072 14.5066 2.20052 17.5079 2.90035 19.3087C3.00033 19.7089 4.59993 20.1091 4.89985 20.1091C13.7976 20.8094 21.4957 17.8081 24.495 13.0059Z" fill="#FBED1D"/>
<path d="M13.2973 0.500115C13.3972 0.40007 13.7971 0.099936 13.9971 0.099936H14.0971C14.0971 0.099936 14.0971 0.099936 13.9971 0.099936C13.4972 -0.000108864 12.9973 -0.000108864 12.4975 0.099936C8.59843 4.00168 7.29876 9.60419 8.69841 14.4063C7.89861 9.60419 9.39823 4.20177 13.2973 0.500115Z" fill="#F7E34D"/>
<path d="M7.90002 10.9048C8.09997 6.40276 9.39965 2.7011 12.5989 0.099936C12.6988 -0.000108864 12.099 -0.000108864 11.3992 0.099936C5.90052 1.30047 2.20144 5.90254 2.50136 11.9052C2.60134 14.8065 3.40114 18.2081 4.20094 19.7087C4.40089 20.1089 5.90052 20.309 6.20044 20.2089C7.50012 20.2089 8.69982 20.1089 9.89953 19.9088C9.1997 17.9079 7.70007 14.2063 7.90002 10.9048Z" fill="#C9882A"/>
<path d="M7.70056 10.9048C7.90051 6.40276 9.20019 2.7011 12.3994 0.099936C12.4994 -0.000108864 11.8995 -0.000108864 11.1997 0.099936C7.60059 1.10038 4.90126 3.10128 3.40163 6.40276C3.00173 7.40321 2.00198 10.4046 2.20193 12.1053C2.40188 14.8065 2.80178 17.9079 3.40163 19.7087C3.50161 20.1089 5.80103 20.5091 6.10096 20.5091C7.40064 20.5091 8.60034 20.409 9.80004 20.2089C9.00024 17.9079 7.50061 14.3063 7.70056 10.9048Z" fill="#FBED1D"/>
<path d="M13.595 7.10311C13.1951 7.40324 12.7952 7.70337 12.3953 7.90346C12.2953 8.00351 12.2953 8.10355 12.3953 8.2036C13.0951 8.90391 13.695 9.40414 14.2948 10.1045C14.3948 10.2045 14.4948 10.2045 14.6947 10.2045C15.0946 9.90436 15.3945 9.60423 15.7945 9.30409C15.7945 9.20405 15.8944 9.00396 15.7945 8.90391C15.2946 8.30364 14.7947 7.70337 14.0949 7.10311C13.8949 7.10311 13.695 7.00306 13.595 7.10311ZM15.8944 5.60243C15.3945 6.00261 14.8947 6.30275 14.4948 6.60288C14.3948 6.70293 14.3948 6.80297 14.3948 7.00306C14.9946 7.50329 15.5945 8.10355 15.9944 8.70382C16.0944 8.80387 16.1943 8.80387 16.3943 8.70382C16.6942 8.2036 17.0941 7.90346 17.494 7.50329C17.694 7.40324 17.694 7.20315 17.594 7.10311C17.1941 6.50284 16.6942 5.90257 16.1944 5.40234C16.1944 5.40234 15.9944 5.50239 15.8944 5.60243Z" fill="white"/>
</svg>
