<svg width="254" height="56" viewBox="0 0 254 56" fill="none" xmlns="http://www.w3.org/2000/svg">
<g clip-path="url(#clip0)">
<path d="M19.9984 46.7001C28.8984 46.7001 36.1984 39.4001 36.1984 30.4001C36.1984 21.4001 28.9984 14.1001 19.9984 14.1001C10.9984 14.1001 3.89844 21.4001 3.89844 30.4001C3.89844 39.4001 11.0984 46.7001 19.9984 46.7001Z" fill="#6BB2DF"/>
<path d="M36.2992 29.6998C36.2992 29.7998 36.2992 29.7998 36.2992 29.8998C36.2992 29.9998 36.2992 30.0998 36.2992 30.1998C36.2992 38.5998 29.7992 45.6998 21.6992 46.3998L26.0992 33.6998L35.8992 27.2998C35.9992 28.0998 36.0992 28.8998 36.2992 29.6998ZM18.7992 46.3998C10.6992 45.6998 4.29922 38.7998 4.19922 30.5998C4.19922 30.1998 4.19922 29.8998 4.19922 29.6998C4.29922 28.8998 4.39922 28.0998 4.59922 27.2998L14.3992 33.6998L18.7992 46.3998Z" fill="#038342"/>
<path d="M21.2984 46.6L25.8984 33.7L35.9984 27.1L36.3984 29.7V29.9C36.3984 30 36.3984 30.1 36.3984 30.2C36.3984 38.6 29.7984 45.8 21.5984 46.6H21.2984ZM26.2984 33.8L21.8984 46.2C29.8984 45.3 36.0984 38.4 36.0984 30.2C36.0984 30.1 36.0984 30.1 36.0984 29.9V29.7L35.6984 27.6L26.2984 33.8ZM18.9984 46.6H18.6984C10.3984 45.8 3.99844 38.9 3.89844 30.5V29.6L4.19844 27L14.2984 33.6L18.9984 46.6ZM4.49844 27.6L4.09844 29.7V30.6C4.19844 38.7 10.3984 45.4 18.2984 46.2L13.9984 33.8L4.49844 27.6Z" fill="#221F1F"/>
<path d="M20.0992 13.6001C29.1992 13.6001 36.5992 21.1001 36.5992 30.3001C36.5992 34.9001 34.6992 39.0001 31.7992 42.1001C28.8992 45.1001 24.6992 47.0001 20.0992 47.0001C10.9992 47.0001 3.69922 39.5001 3.69922 30.3001C3.69922 25.7001 5.59922 21.6001 8.49922 18.5001C11.4992 15.5001 15.5992 13.6001 20.0992 13.6001ZM20.0992 14.3001C15.7992 14.3001 11.7992 16.1001 8.89922 18.9001C6.09922 21.7001 4.29922 25.8001 4.29922 30.2001C4.29922 38.9001 11.3992 46.1001 20.0992 46.1001C24.3992 46.1001 28.3992 44.3001 31.2992 41.5001C34.1992 38.7001 35.8992 34.6001 35.8992 30.2001C35.8992 21.5001 28.8992 14.3001 20.0992 14.3001Z" fill="#221F1F"/>
<path d="M20.0008 55.9998L14.0008 33.7998L10.3008 31.2998V23.7998L17.3008 28.0998L20.0008 39.4998L23.0008 28.1998L30.0008 23.8998V31.3998L26.6008 33.8998L20.0008 55.9998ZM11.0008 31.0998L14.7008 33.5998L20.1008 53.8998L25.9008 33.4998L29.4008 31.0998V25.0998L23.5008 28.4998L20.0008 41.9998L16.7008 28.5998L10.9008 24.9998L11.0008 31.0998Z" fill="black"/>
<path d="M10.6016 31.1999V24.3999L17.0016 28.2999L20.0016 40.6999L23.2016 28.2999L29.6016 24.3999V31.0999L26.1016 33.5999L20.0016 54.8999L14.3016 33.5999L10.6016 31.1999Z" fill="#BFCA30"/>
<path d="M19.9 25.5C18.7 25.5 17.5 24.6 17.5 23.1C17.5 22.1 18.1 21.1 18.7 20C18.8 19.9 18.9 19.6 19 19.5C19.2 19.1 19.4 18.8 19.6 18.5L19.9 18L20.1 18.5C20.3 19 20.6 19.4 20.9 20C21.6 21.2 22.2 22.3 22.2 23.2C22.3 24.5 21.1 25.5 19.9 25.5ZM19.9 19.1C19.8 19.2 19.7 19.5 19.6 19.6C19.5 19.7 19.4 20 19.3 20.1C18.6 21.2 18.1 22.1 18.1 22.9C18.1 24.1 19 24.7 19.8 24.7C20.6 24.7 21.5 23.9 21.5 22.8C21.5 22 20.9 20.9 20.3 19.9C20.3 19.8 20.1 19.4 19.9 19.1Z" fill="#221F1F"/>
<path d="M19.9008 18.5C20.7008 20.2 21.9008 21.7 21.9008 23C21.9008 24.2 20.9008 25.2 19.9008 25.2C18.9008 25.2 17.8008 24.4 17.8008 23.1C17.8008 22.2 18.4008 21.1 19.0008 20.1C19.4008 19.6 19.6008 19 19.9008 18.5Z" fill="#FBED1D"/>
<path d="M9.70219 26.1001C9.40219 26.2001 9.10219 26.2001 8.80219 26.2001C7.70219 26.3001 5.20219 26.2001 3.80219 25.9001C2.40219 25.7001 0.80219 25.2001 0.50219 24.6001C-0.0978102 23.6001 -0.19781 23.0001 0.70219 21.2001C1.60219 19.2001 3.30219 17.0001 5.90219 14.1001C8.40219 11.5001 12.5022 9.40006 16.4022 8.60006C17.9022 8.30006 19.1022 8.70006 20.2022 8.90006L21.0022 9.00006L23.0022 9.10006C24.7022 9.40006 26.3022 10.0001 26.6022 11.3001C27.1022 13.1001 25.9022 15.4001 23.6022 17.4001C20.4022 20.1001 17.6022 22.4001 15.1022 23.9001C12.7022 25.1001 11.2022 25.8001 9.70219 26.1001Z" fill="#DEB53A"/>
<path d="M23.7019 9.30022C22.9019 9.20022 21.3019 8.90022 20.5019 8.70022C16.6019 8.00022 9.60191 10.7002 6.00191 14.4002C3.30191 17.3002 1.60191 19.6002 0.701907 21.5002C-0.0980935 23.4002 -0.0980935 23.8002 0.501907 24.7002C0.701907 25.2002 2.20191 25.7002 3.70191 26.0002C5.00191 26.2002 7.60191 26.4002 8.70191 26.3002C10.3019 26.1002 11.8019 25.6002 14.8019 24.0002C17.4019 22.5002 20.3019 20.2002 23.5019 17.4002C28.0019 13.7002 27.6019 9.90022 23.7019 9.30022Z" fill="#FBED1D"/>
<path d="M3.89866 16.7999C2.39866 18.5999 1.39866 20.0999 0.798659 21.3999C0.0986594 22.7999 0.0986594 23.3999 0.298659 23.9999C0.398659 23.8999 0.298659 23.8999 1.49866 22.1999C1.89866 21.4999 3.49866 21.4999 4.09866 21.5999C7.09866 21.6999 17.8987 21.4999 24.2987 13.3999L3.89866 16.7999Z" fill="#E9D817"/>
<path d="M24.5007 13.0001C24.6007 12.9001 24.6007 12.5001 24.6007 12.4001C24.7007 6.00013 20.0007 0.600129 13.9007 0.100129C7.5007 -0.299871 1.8007 4.80013 1.5007 11.6001C1.4007 14.5001 2.2007 17.5001 2.9007 19.3001C3.0007 19.7001 4.6007 20.1001 4.9007 20.1001C13.8007 20.8001 21.5007 17.8001 24.5007 13.0001Z" fill="#6F6E6F"/>
<path d="M24.5007 13.0001C24.6007 12.9001 24.6007 12.5001 24.6007 12.4001C24.7007 6.00013 20.0007 0.600129 13.9007 0.100129C7.5007 -0.299871 1.8007 4.80013 1.5007 11.6001C1.4007 14.5001 2.2007 17.5001 2.9007 19.3001C3.0007 19.7001 4.6007 20.1001 4.9007 20.1001C13.8007 20.8001 21.5007 17.8001 24.5007 13.0001Z" fill="#FBED1D"/>
<path d="M13.2985 0.499902C13.3985 0.399902 13.7985 0.0999023 13.9985 0.0999023H14.0985C14.0985 0.0999023 14.0985 0.0999023 13.9985 0.0999023C13.4985 -9.76548e-05 12.9985 -9.76548e-05 12.4985 0.0999023C8.59854 3.9999 7.29854 9.5999 8.69854 14.3999C7.89854 9.5999 9.39854 4.1999 13.2985 0.499902Z" fill="#F7E34D"/>
<path d="M7.90137 10.8999C8.10137 6.3999 9.40137 2.6999 12.6014 0.0999023C12.7014 -9.76548e-05 12.1014 -9.76548e-05 11.4014 0.0999023C5.90137 1.2999 2.20137 5.8999 2.50137 11.8999C2.60137 14.7999 3.40137 18.1999 4.20137 19.6999C4.40137 20.0999 5.90137 20.2999 6.20137 20.1999C7.50137 20.1999 8.70137 20.0999 9.90137 19.8999C9.20137 17.8999 7.70137 14.1999 7.90137 10.8999Z" fill="#C9882A"/>
<path d="M7.70193 10.8999C7.90193 6.3999 9.20193 2.6999 12.4019 0.0999023C12.5019 -9.76548e-05 11.9019 -9.76548e-05 11.2019 0.0999023C7.60193 1.0999 4.90194 3.0999 3.40193 6.3999C3.00194 7.3999 2.00193 10.3999 2.20193 12.0999C2.40193 14.7999 2.80193 17.8999 3.40193 19.6999C3.50194 20.0999 5.80193 20.4999 6.10193 20.4999C7.40193 20.4999 8.60194 20.3999 9.80194 20.1999C9.00194 17.8999 7.50194 14.2999 7.70193 10.8999Z" fill="#FBED1D"/>
<path d="M13.5992 7.0999C13.1992 7.3999 12.7992 7.6999 12.3992 7.8999C12.2992 7.9999 12.2992 8.0999 12.3992 8.1999C13.0992 8.8999 13.6992 9.3999 14.2992 10.0999C14.3992 10.1999 14.4992 10.1999 14.6992 10.1999C15.0992 9.8999 15.3992 9.5999 15.7992 9.2999C15.7992 9.1999 15.8992 8.9999 15.7992 8.8999C15.2992 8.2999 14.7992 7.6999 14.0992 7.0999C13.8992 7.0999 13.6992 6.9999 13.5992 7.0999ZM15.8992 5.5999C15.3992 5.9999 14.8992 6.2999 14.4992 6.5999C14.3992 6.6999 14.3992 6.7999 14.3992 6.9999C14.9992 7.4999 15.5992 8.0999 15.9992 8.6999C16.0992 8.7999 16.1992 8.7999 16.3992 8.6999C16.6992 8.1999 17.0992 7.8999 17.4992 7.4999C17.6992 7.3999 17.6992 7.1999 17.5992 7.0999C17.1992 6.4999 16.6992 5.8999 16.1992 5.3999C16.1992 5.3999 15.9992 5.4999 15.8992 5.5999Z" fill="white"/>
<path d="M59.8485 20.5676L57.9068 27.3147H59.4017C59.8657 27.3147 60.3382 27.2802 60.7764 27.1511C61.163 27.0479 61.5067 26.7553 61.7645 26.4627C62.1854 25.9893 62.4518 25.2923 62.6322 24.6898L62.7525 24.2854H64.3849L61.859 33.1323H60.2008L60.4156 32.4094C60.5788 31.8586 60.7334 31.2218 60.7334 30.6366C60.7334 30.4128 60.7249 29.9481 60.4843 29.8276C60.3296 29.7502 60.1664 29.6985 59.9946 29.6641C59.8055 29.6211 59.5993 29.6125 59.4017 29.6125H57.271L55.0715 37.3062L55.0371 37.5988C55.0887 37.8484 55.965 37.857 56.1197 37.857H57.9927C58.8433 37.857 59.7368 37.814 60.5616 37.6332C61.1802 37.4955 61.7902 37.2718 62.3229 36.9103C62.8728 36.5489 63.3367 36.0497 63.6976 35.5076C64.2045 34.7847 64.5911 33.9585 64.9176 33.1323L65.0465 32.7795H66.7047L64.11 40.172H46.9609L47.3562 38.6401H48.3012C49.5556 38.6401 50.5007 38.227 50.8616 36.9534L55.3722 21.1442C55.4152 21.0151 55.441 20.886 55.4495 20.7569C55.4581 20.6967 55.4839 20.602 55.4839 20.5245C55.4839 19.793 54.5732 19.7758 54.0491 19.7758H52.8033L53.1985 18.2526H69.3166L67.5467 24.4919H65.9228L66.0861 23.8034C66.1806 23.4162 66.2235 23.0375 66.2235 22.6416C66.2235 21.0925 65.3902 20.5676 63.9124 20.5676H59.8485ZM78.9908 30.1718L78.5527 30.2063H78.5355C78.3035 30.2063 78.0887 30.1977 77.8653 30.1632L75.8377 37.246C75.8033 37.3923 75.7689 37.5214 75.7432 37.6677C75.726 37.7451 75.7088 37.8398 75.7088 37.9258C75.7088 38.6315 76.6797 38.6401 77.1952 38.6401H78.4324L78.0372 40.172H67.7443L68.1481 38.6401H69.0846C69.454 38.6401 69.8407 38.6229 70.1929 38.5283C70.4335 38.4594 70.6655 38.3647 70.8545 38.2098C71.2583 37.8914 71.4989 37.4525 71.6191 36.9534L76.1556 21.1098L76.1642 21.0753C76.1985 20.9979 76.2243 20.9032 76.2329 20.8171C76.2501 20.7139 76.2501 20.602 76.2501 20.4987C76.2501 19.793 75.2878 19.7758 74.7723 19.7758H73.5437L73.9475 18.2526H81.9722C83.2523 18.2526 84.6871 18.4075 85.8041 19.0443C86.6203 19.509 87.3677 20.1459 87.7458 21.0237C88.0723 21.7466 88.2269 22.5125 88.2269 23.3129C88.2269 24.905 87.6427 26.2819 86.5258 27.4007C85.9931 27.9515 85.3659 28.4162 84.6957 28.7949C84.1802 29.0789 83.6304 29.3026 83.0805 29.4748L85.5635 36.1702C85.9501 37.2374 86.5945 38.4164 87.8231 38.6401L88.4331 38.752L88.0465 40.1634H82.6939L78.9908 30.1718ZM81.1302 20.5676L80.6233 20.6106L78.5269 27.8568C78.862 27.8827 79.1884 27.8913 79.5063 27.8913C80.7693 27.8913 82.2557 27.6589 82.9258 26.4541C83.4757 25.4902 83.828 24.4403 83.828 23.3301C83.828 22.6072 83.7163 21.6691 83.0805 21.1872C82.5134 20.7483 81.8519 20.5676 81.1302 20.5676ZM107.051 18.2612L106.656 19.7844H105.711C104.457 19.7844 103.494 20.1803 103.142 21.4626L98.6143 37.246C98.5799 37.3923 98.5541 37.5214 98.5198 37.6677C98.5026 37.7451 98.4854 37.8398 98.4854 37.9258C98.4854 38.6315 99.4563 38.6401 99.9632 38.6401H101.2L100.797 40.172H90.5209L90.9247 38.6401H91.8612C92.2307 38.6401 92.6259 38.6229 92.9695 38.5283C93.2187 38.4594 93.4507 38.3647 93.6397 38.2098C94.0349 37.8914 94.2669 37.4525 94.3958 36.9534L98.9322 21.1356C98.9751 21.0065 99.0009 20.8774 99.0181 20.7483C99.0353 20.6708 99.0353 20.5762 99.0353 20.4901C99.0353 19.7844 98.1074 19.7672 97.6005 19.7672H96.3719L96.7671 18.244H107.051V18.2612ZM127.551 27.1253C127.551 28.8379 127.242 30.4989 126.615 32.091C125.987 33.6659 125.103 35.0686 123.917 36.2821C122.731 37.5214 121.305 38.4594 119.716 39.1307C118.023 39.845 116.21 40.1634 114.371 40.1634H105.032L105.436 38.6315H106.381C107.636 38.6315 108.581 38.2184 108.942 36.9448L113.435 21.1356C113.478 21.0065 113.504 20.8774 113.53 20.7483C113.547 20.6881 113.564 20.5934 113.564 20.5159C113.564 19.7844 112.662 19.7672 112.112 19.7672H110.883L111.278 18.244H119.38C121.03 18.244 122.705 18.5452 124.089 19.4832C125.3 20.3008 126.202 21.3851 126.752 22.7363C127.319 24.1391 127.551 25.6279 127.551 27.1253ZM117.86 20.6192L113.289 36.8157L113.212 37.2029C113.28 37.857 114.87 37.857 115.274 37.857C116.82 37.857 118.152 37.3406 119.32 36.3165C120.592 35.1891 121.485 33.7778 122.087 32.1856C122.748 30.4903 123.075 28.7002 123.075 26.8758C123.075 24.3542 122.723 20.559 119.432 20.559C118.925 20.5676 118.375 20.5676 117.86 20.6192ZM149.907 26.1615C149.907 26.979 149.829 27.788 149.683 28.597C149.503 29.4403 149.262 30.2665 148.953 31.0669C148.317 32.7536 147.407 34.2941 146.273 35.6883C145.104 37.1255 143.704 38.2873 142.08 39.1565C140.447 40.0429 138.703 40.499 136.856 40.499C135.473 40.499 134.132 40.1978 132.964 39.4319C131.864 38.709 131.057 37.7193 130.541 36.5145C130 35.2408 129.759 33.881 129.759 32.5041C129.759 31.6349 129.837 30.7743 130 29.9309C130.163 29.0359 130.412 28.1667 130.73 27.3233C131.383 25.6021 132.302 24.0272 133.479 22.6072C134.648 21.2216 136.023 20.0942 137.621 19.2509C139.236 18.3989 140.954 17.96 142.776 17.96C144.262 17.96 145.705 18.2784 146.925 19.1734C147.45 19.5521 147.922 20.0082 148.3 20.5331C148.687 21.0581 148.996 21.6433 149.245 22.263C149.701 23.5022 149.907 24.8275 149.907 26.1615ZM145.482 24.6124C145.482 23.6485 145.396 21.6777 144.528 21.0237C143.918 20.5676 143.248 20.2664 142.492 20.2664C141.238 20.2664 140.129 20.7139 139.159 21.5142C138.033 22.4437 137.157 23.6313 136.495 24.9222C135.739 26.3766 135.181 27.9085 134.794 29.492C134.45 30.9378 134.201 32.4524 134.201 33.9499C134.201 34.9998 134.425 36.0153 134.88 36.962C135.327 37.8914 136.203 38.1582 137.191 38.1582C138.325 38.1582 139.339 37.7451 140.258 37.0824C141.367 36.2821 142.243 35.2063 142.948 34.0359C143.772 32.659 144.374 31.1443 144.795 29.6039C145.25 27.9687 145.482 26.3078 145.482 24.6124ZM158.679 24.4144L154.993 37.2804C154.95 37.3923 154.924 37.5127 154.899 37.6332C154.881 37.7279 154.856 37.8312 154.856 37.9172C154.856 38.6229 155.835 38.6315 156.342 38.6315H157.579L157.184 40.1634H148.627L149.022 38.6315H149.967C151.213 38.6315 152.158 38.2184 152.519 36.9448L157.107 20.929C156.789 20.1115 156.205 19.7758 155.294 19.7758H154.057L154.538 18.2526H160.853L166.059 31.9963L169.169 21.1442C169.195 21.0065 169.23 20.8774 169.255 20.7483C169.255 20.6622 169.273 20.5762 169.273 20.4987C169.273 19.793 168.353 19.7758 167.838 19.7758H166.6L167.004 18.2526H175.57L175.089 19.7758H174.187C172.933 19.7758 171.979 20.1717 171.627 21.4454L166.283 40.1548H164.753L158.679 24.4144Z" fill="white"/>
<path d="M137.521 40.9084C135.798 40.9084 134.274 40.5003 133.001 39.7092C131.728 38.9098 130.776 37.8022 130.152 36.4198C129.572 35.1374 129.278 33.6884 129.278 32.1228C129.278 31.2068 129.364 30.2991 129.537 29.433C129.693 28.6003 129.962 27.6926 130.317 26.7432C131.027 24.9695 132.022 23.3373 133.278 21.8799C134.525 20.4393 136.032 19.2651 137.781 18.374C139.564 17.458 141.487 17 143.487 17C145.409 17 147.028 17.4663 148.319 18.3824C148.968 18.8321 149.513 19.3484 149.946 19.923C150.371 20.4726 150.734 21.1138 151.02 21.8133C151.522 23.1291 151.765 24.5364 151.765 26.0021C151.765 26.8848 151.687 27.7425 151.522 28.5503C151.349 29.3997 151.081 30.2741 150.726 31.1402C150.085 32.789 149.115 34.3879 147.86 35.8869C146.578 37.3858 145.045 38.6017 143.296 39.5094C141.487 40.4337 139.547 40.9084 137.521 40.9084ZM143.201 21.3387C142.231 21.3387 141.339 21.6634 140.543 22.3046C139.599 23.0458 138.794 24.0451 138.136 25.2693C137.434 26.56 136.889 27.9757 136.508 29.4663C136.135 30.9486 135.945 32.3144 135.945 33.5302C135.945 34.4046 136.135 35.229 136.516 35.9868C136.62 36.1783 136.802 36.5531 137.867 36.5531C138.707 36.5531 139.521 36.2699 140.318 35.7203C141.227 35.0874 142.041 34.1964 142.725 33.0805C143.452 31.923 144.032 30.5656 144.474 29.0416C144.898 27.551 145.115 26.0187 145.115 24.4948C145.115 22.263 144.604 21.8633 144.595 21.8633C144.11 21.5135 143.66 21.3387 143.201 21.3387ZM166.035 40.6003C165.333 40.6003 164.71 40.1839 164.476 39.551L159.662 27.6093L156.865 37.0028C156.943 37.0111 157.679 37.0111 157.679 37.0111C158.198 37.0111 158.683 37.2359 159.004 37.644C159.324 38.0604 159.419 38.56 159.289 39.0264L159.194 39.3928C158.986 40.1089 158.328 40.6003 157.584 40.6003H150.128C149.6 40.6003 149.098 40.3588 148.795 39.9591C148.5 39.6093 148.388 39.093 148.518 38.6017L148.63 38.2019C148.803 37.5108 149.47 37.0194 150.241 37.0194H150.752C152.007 37.0194 152.163 36.5114 152.276 36.145L156.778 21.0638C156.674 20.9473 156.51 20.8806 156.12 20.8806H155.644C155.107 20.8806 154.614 20.6391 154.293 20.2228C153.981 19.8147 153.895 19.2817 154.051 18.7988L154.181 18.399C154.397 17.7412 155.029 17.2998 155.757 17.2998H161.298C162.017 17.2998 162.64 17.7328 162.865 18.3657L166.805 28.3088L169.013 20.889C168.944 20.8806 168.849 20.8806 168.745 20.8806H168.243C167.723 20.8806 167.247 20.6558 166.927 20.2561C166.615 19.8897 166.502 19.3734 166.623 18.8904L166.736 18.4906C166.935 17.7911 167.593 17.2998 168.355 17.2998H175.776C176.304 17.2998 176.789 17.533 177.109 17.941C177.412 18.3574 177.508 18.8654 177.378 19.34L177.222 19.7814C177.005 20.431 176.373 20.8806 175.646 20.8806H175.152C173.871 20.8806 173.724 21.3636 173.628 21.7217L168.347 39.4511C168.147 40.1339 167.498 40.6086 166.753 40.6086H166.035V40.6003ZM106.193 40.6003C105.673 40.6003 105.171 40.3588 104.868 39.9591C104.574 39.6176 104.461 39.1013 104.582 38.61L104.704 38.2019C104.877 37.5108 105.544 37.0194 106.306 37.0194H106.816C107.994 37.0194 108.211 36.5864 108.34 36.1534L112.878 20.889C112.8 20.889 112.09 20.8806 112.09 20.8806C111.562 20.8806 111.059 20.6391 110.756 20.2311C110.462 19.8813 110.349 19.365 110.479 18.8737L110.592 18.4823C110.774 17.7911 111.44 17.2915 112.202 17.2915H119.926C122.056 17.2915 123.857 17.7578 125.286 18.6738C126.697 19.5899 127.728 20.814 128.36 22.3046C128.949 23.6787 129.252 25.2276 129.252 26.9348C129.252 28.7252 128.914 30.474 128.239 32.1312C127.563 33.78 126.567 35.2623 125.295 36.5364C124.022 37.8022 122.48 38.8099 120.697 39.526C118.93 40.2422 116.973 40.6086 114.887 40.6086H106.193V40.6003ZM114.93 36.2117C115.146 36.2366 115.432 36.2533 115.77 36.2533C117.069 36.2533 118.16 35.8536 119.112 35.0375C120.186 34.1298 121.026 32.9223 121.615 31.4483C122.221 29.9244 122.532 28.3255 122.532 26.6933C122.532 21.6384 120.593 21.6384 119.952 21.6384C119.692 21.6384 119.441 21.6384 119.225 21.6468L114.93 36.2117ZM91.5681 40.6003C91.0399 40.6003 90.5464 40.3588 90.2433 39.9591C89.9489 39.6176 89.8363 39.1096 89.9489 38.6183L90.0701 38.2103C90.2433 37.5191 90.9014 37.0194 91.672 37.0194H92.1829C92.5379 37.0194 92.8323 36.9944 93.0488 36.9445C93.144 36.9195 93.2393 36.8779 93.3086 36.8196C93.4644 36.6947 93.5856 36.4948 93.6722 36.2033L98.2355 20.889C98.1575 20.889 97.4475 20.8806 97.4475 20.8806C96.9366 20.8806 96.4431 20.6475 96.1314 20.2477C95.8196 19.8563 95.7157 19.34 95.8543 18.8654L95.9495 18.5073C96.1487 17.7994 96.8068 17.3081 97.5687 17.3081H106.756C107.275 17.3081 107.769 17.5413 108.081 17.9327C108.401 18.3407 108.505 18.8737 108.358 19.3484L108.262 19.6981C108.072 20.406 107.414 20.8973 106.652 20.8973H106.132C104.842 20.8973 104.704 21.3803 104.608 21.7384L100.045 37.0278C100.123 37.0361 100.218 37.0361 100.348 37.0361H100.868C101.379 37.0361 101.855 37.2609 102.175 37.644C102.504 38.077 102.6 38.5767 102.47 39.043L102.374 39.4094C102.149 40.1423 101.5 40.6169 100.755 40.6169H91.5681V40.6003ZM83.3508 40.6003C82.6321 40.6003 82.0087 40.1672 81.7836 39.5343L78.7097 31.5982L77.1078 37.0111C77.177 37.0194 77.9044 37.0194 77.9044 37.0194C78.4153 37.0194 78.8915 37.2443 79.2205 37.6357C79.5496 38.077 79.6448 38.585 79.4976 39.0597L79.411 39.4011C79.2032 40.1173 78.5365 40.6086 77.7918 40.6086H68.6047C68.0939 40.6086 67.6176 40.3838 67.2972 39.9924C66.9769 39.5926 66.8643 39.068 67.0028 38.585L67.1067 38.2103C67.3059 37.4941 67.9553 37.0194 68.7086 37.0194H69.2195C69.6611 37.0194 69.9295 36.9778 70.0681 36.9445C70.2326 36.9028 70.3105 36.8445 70.3278 36.8279C70.501 36.6947 70.6222 36.4948 70.7002 36.2033L75.2634 20.889C75.1855 20.8806 74.4581 20.8806 74.4581 20.8806C73.93 20.8806 73.4537 20.6475 73.1333 20.2477C72.813 19.873 72.709 19.3484 72.8562 18.857L72.9515 18.499C73.1333 17.7994 73.7914 17.3081 74.5534 17.3081H82.2079C84.0695 17.3081 85.5069 17.6079 86.6239 18.2241C87.8015 18.8654 88.6241 19.6815 89.0397 20.6391C89.4207 21.4303 89.6112 22.3213 89.6112 23.2623C89.6112 25.0777 88.9358 26.66 87.585 27.9591C86.9356 28.5836 86.2256 29.0999 85.4896 29.4913C85.2471 29.6162 84.996 29.7411 84.7276 29.8494L86.849 35.3289C87.2473 36.3949 87.7149 36.9611 88.2951 37.0611C88.7453 37.136 89.1436 37.3942 89.4034 37.7606C89.6632 38.1686 89.7324 38.635 89.6112 39.0597L89.5073 39.4344C89.3255 40.1089 88.6674 40.6003 87.9141 40.6003H83.3508ZM80.199 26.6017C81.2727 26.5434 81.9394 26.2686 82.2252 25.7606C82.736 24.8779 82.9872 24.0618 82.9872 23.2457C82.9872 22.313 82.7534 22.0715 82.6841 22.0215C82.3984 21.8133 82.078 21.6884 81.6883 21.6468L80.199 26.6017ZM47.6675 40.6003C47.148 40.6003 46.6544 40.3671 46.3427 39.9674C46.0223 39.5843 45.9184 39.0513 46.0656 38.56L46.1695 38.2019C46.3514 37.5024 47.0181 37.0111 47.7801 37.0111H48.2823C49.5552 37.0111 49.7024 36.5114 49.8063 36.145L54.3349 20.8806C54.2656 20.8806 53.5556 20.8723 53.5556 20.8723C53.0274 20.8723 52.5338 20.6391 52.2221 20.2311C51.9277 19.873 51.8065 19.3567 51.945 18.8654L52.0576 18.474C52.2221 17.7828 52.8888 17.2915 53.6595 17.2915H68.7086C69.2368 17.2915 69.7217 17.5246 70.0421 17.9244C70.3538 18.3324 70.4491 18.8321 70.3192 19.3067L68.8385 24.2616C68.6394 24.9445 67.9726 25.4275 67.2366 25.4275H66.7431C66.2235 25.4275 65.7386 25.1943 65.4269 24.7946C65.4183 24.7863 65.4096 24.7779 65.4009 24.7696C65.4009 24.8945 65.375 25.0278 65.3403 25.1527L63.115 32.6308C62.9158 33.3137 62.2578 33.7883 61.5218 33.7883H61.0455C60.5087 33.7883 60.0064 33.5468 59.7034 33.1305C59.3917 32.7641 59.2964 32.2394 59.4436 31.7481C59.6601 31.0652 59.7207 30.6489 59.7294 30.399C59.6601 30.3907 59.5822 30.3824 59.4783 30.3824H58.1448L56.3957 36.245H58.0409C59.002 36.245 59.7986 36.1783 60.4048 36.0534C60.9416 35.9368 61.4092 35.762 61.7902 35.5121C62.1885 35.2623 62.5608 34.9042 62.8985 34.4296C63.2882 33.8966 63.6518 33.1971 63.9895 32.3477C64.258 31.7231 64.8727 31.3234 65.5481 31.3234H66.033C66.5612 31.3234 67.0894 31.5815 67.3925 32.0062C67.7042 32.4226 67.7821 32.9722 67.5916 33.4719L65.375 39.5177C65.1498 40.1589 64.5177 40.5836 63.8077 40.5836H47.6675V40.6003ZM59.4696 26.052C59.9112 26.052 60.2835 26.0104 60.5693 25.9355C60.5952 25.9271 60.7598 25.8772 61.0369 25.5774C61.2014 25.4025 61.4352 25.0361 61.6776 24.2616C61.8941 23.5704 62.5348 23.1124 63.2795 23.1124H63.7384C64.2753 23.1124 64.7775 23.3622 65.0806 23.7703C65.0806 23.6704 65.0979 23.5621 65.1239 23.4622C65.2018 23.1374 65.2364 22.8459 65.2364 22.5711C65.2364 21.9632 65.2364 21.6218 64.0069 21.6218H60.7338L59.4176 26.0437H59.4696V26.052Z" stroke="white" stroke-width="0.5" stroke-miterlimit="10"/>
<path fill-rule="evenodd" clip-rule="evenodd" d="M201.937 27.4712C203.201 28.4816 203.796 29.9437 203.796 31.644C203.796 31.8905 203.779 32.1369 203.763 32.3751C203.739 32.6297 203.706 32.8844 203.657 33.139C202.719 38.1825 198.83 40.0964 194.077 40.0964H184.904C184.382 40.0964 183.795 39.9896 183.493 39.5132C183.257 39.1436 183.208 38.6179 183.379 38.2154L183.697 37.4925C183.836 37.1804 184.072 36.8765 184.366 36.6958C184.667 36.515 185.051 36.4411 185.393 36.4822C185.458 36.4904 185.654 36.515 185.727 36.4904C185.776 36.4329 185.833 36.2358 185.85 36.17C185.923 35.8826 185.98 35.5951 186.045 35.3076C186.168 34.7244 186.29 34.1411 186.412 33.5579C186.755 31.9315 187.081 30.2969 187.415 28.6623C187.937 26.1077 188.508 23.5613 188.964 20.9903C188.973 20.9245 188.964 20.8506 188.973 20.7767C188.973 20.7685 188.973 20.7685 188.973 20.7603C188.752 20.7274 188.426 20.7192 188.288 20.7192L187.741 20.711C187.252 20.7028 186.722 20.4481 186.518 19.9799C186.355 19.6021 186.404 19.1749 186.6 18.8217L187.073 17.9839C187.203 17.7539 187.342 17.5157 187.546 17.3432C187.864 17.0803 188.288 17.0557 188.679 17.0557H197.33C199.499 17.0557 201.945 17.5157 203.249 19.446C203.828 20.3003 204.065 21.286 204.065 22.3127C204.065 22.5592 204.049 22.8056 204.032 23.0438C204.008 23.2984 203.975 23.5613 203.926 23.8159C203.657 25.2616 202.964 26.4855 201.937 27.4712ZM193.946 30.4941L193 35.439H193.098C194.949 35.439 195.675 34.4286 196.009 32.6955C196.082 32.293 196.148 31.8822 196.148 31.4715C196.148 31.258 196.131 30.7815 195.976 30.6173C195.871 30.5023 195.593 30.4941 195.447 30.4941H193.946ZM195.65 21.672L194.908 25.5163H195.145C196.034 25.5163 196.352 24.1363 196.482 23.4545C196.515 23.282 196.539 23.1013 196.572 22.9288C196.588 22.8302 196.596 22.7399 196.596 22.6413C196.596 22.4031 196.572 22.0663 196.376 21.8938C196.213 21.7542 195.919 21.6967 195.65 21.672Z" stroke="white" stroke-width="0.5" stroke-miterlimit="10"/>
<path fill-rule="evenodd" clip-rule="evenodd" d="M219.275 18.2213C219.169 18.4437 219.054 18.6573 218.931 18.8708C218.817 19.0755 218.623 19.4492 218.455 19.6005C218.182 19.8496 217.759 19.9831 217.381 19.9297H217.372C217.319 19.9653 217.257 20.0098 217.196 20.0454C216.508 20.4636 216.147 22.0652 216.006 22.8126L214.288 31.8262C214.227 32.1643 214.165 32.5114 214.121 32.8495C214.086 33.1253 214.068 33.4012 214.068 33.6681C214.068 34.2376 214.138 34.9583 214.473 35.4388C214.984 36.1684 215.759 36.3731 216.605 36.3731C217.645 36.3731 218.517 36.026 219.257 35.2786C220.209 34.3176 220.675 32.7516 220.931 31.4436L222.693 22.3499C222.755 22.0385 222.79 21.7271 222.79 21.4067C222.79 21.2199 222.79 21.033 222.79 20.8462C222.79 20.6415 222.772 20.1077 222.649 19.9386C222.605 19.8763 222.349 19.8674 222.279 19.8585L221.786 19.8496C221.424 19.8496 221.001 19.7428 220.834 19.378C220.719 19.1289 220.737 18.7997 220.896 18.5683L221.574 17.5984C221.653 17.4828 221.794 17.3226 221.9 17.2336C222.085 17.0913 222.411 17.0557 222.64 17.0557H229.265C229.565 17.0557 229.882 17.1624 230.049 17.4294C230.217 17.6963 230.199 18.0522 230.058 18.3281L229.582 19.4492C229.494 19.645 229.327 19.8318 229.133 19.9208C228.974 20.0009 228.754 20.0187 228.569 20.0187C227.653 20.0276 227.327 20.4814 227.16 21.3445L225.072 32.2444C224.587 34.7536 224.173 36.4976 222.376 38.4196C220.64 40.2703 217.839 41 215.381 41C212.755 41 209.874 40.4038 208.359 38.0014C207.575 36.7646 207.223 35.3765 207.223 33.9172C207.223 33.2499 207.302 32.5914 207.425 31.9419L209.531 20.8818C209.54 20.8195 209.566 20.7394 209.566 20.686C209.575 20.5259 209.557 20.0899 209.425 19.9742C209.337 19.8941 209.046 19.8763 208.932 19.8763L208.527 19.8674C208.209 19.8763 207.857 19.7784 207.681 19.4937C207.61 19.378 207.575 19.2535 207.566 19.12C207.549 18.9509 207.593 18.6751 207.672 18.5149L207.945 18.0077C207.963 17.9722 207.98 17.9544 208.051 17.8476C208.112 17.7586 208.165 17.6696 208.227 17.5806C208.236 17.5717 208.245 17.5539 208.253 17.545C208.553 17.0735 209.293 17.0468 209.795 17.0824H218.209C218.447 17.0824 218.843 17.1713 219.019 17.3137C219.204 17.465 219.319 17.7141 219.336 17.9455L219.345 18.1056L219.275 18.2213Z" stroke="white" stroke-width="0.5" stroke-miterlimit="10"/>
<path d="M197.72 18.1011C201.453 18.1458 203.319 19.4516 203.319 22.0453C203.319 22.251 203.31 22.4567 203.292 22.6803C203.274 22.9039 203.239 23.1275 203.203 23.3511C202.801 25.3902 201.408 26.9375 199.024 27.9929C201.685 28.458 203.015 29.8621 203.015 32.2054C203.015 32.4111 203.006 32.6168 202.989 32.8404C202.971 33.064 202.935 33.2876 202.899 33.5112C202.113 37.5985 199.194 39.6377 194.149 39.6377H184.273L184.443 39.2531C185.702 39.3872 186.506 38.94 186.863 37.6074C187.22 36.2748 190.309 20.9362 190.309 20.9362C190.327 20.8379 190.327 20.7127 190.336 20.5696C190.533 18.6914 189.077 18.5572 187.845 18.5393L188.086 18.11H197.72V18.1011ZM195.658 29.1735H192.542L191.149 36.4179C191.131 36.5163 191.113 36.6057 191.104 36.6952C191.095 36.7757 191.086 36.8561 191.086 36.9366C191.086 37.7237 191.542 38.1172 192.452 38.1172H193.086C195.81 38.0993 197.453 36.6236 198.024 33.6901C198.149 33.064 198.203 32.5095 198.203 32.0265C198.203 30.1841 197.354 29.2361 195.658 29.1735ZM195.327 27.3221C197.024 27.179 198.095 25.9448 198.533 23.6194C198.578 23.3958 198.604 23.1811 198.64 22.9844C198.667 22.7787 198.685 22.5908 198.685 22.412C198.685 20.5696 197.622 19.6215 195.506 19.5589H194.417L192.899 27.3221H195.327Z" fill="white"/>
<path d="M211.207 21.0922C211.245 20.8869 211.273 20.7709 211.273 20.7262C211.307 19.2508 210.688 18.6449 209.465 18.6051L209.684 18.2228L218.523 18.3167L218.277 18.7703C216.527 18.7428 215.82 20.5778 215.387 22.6125L213.532 31.6443C213.448 32.0459 213.381 32.4209 213.342 32.7604C213.294 33.0997 213.272 33.4215 213.269 33.7256C213.258 34.7719 213.464 35.6059 213.877 36.2185C214.554 37.1917 215.593 37.6857 217.013 37.7008C218.406 37.7156 219.59 37.2452 220.573 36.2897C221.548 35.3341 222.242 33.8477 222.647 31.8307L224.53 22.7096C224.615 22.308 224.664 21.915 224.668 21.5304C224.681 20.2963 224.777 18.8125 223.001 18.7489L223.282 18.3673L229.576 18.4342L229.329 18.9593C227.49 18.9845 226.914 20.2216 226.698 21.2479L224.465 32.1809C224.059 34.3143 223.719 36.0011 221.986 37.7537C220.659 39.1617 218.302 39.9238 215.757 39.8967C212.74 39.8646 210.722 39.0293 209.694 37.3815C209.062 36.3641 208.753 35.216 208.767 33.9192C208.773 33.3558 208.841 32.7662 208.964 32.1682L211.207 21.0922Z" fill="white"/>
<path d="M249.123 26.4337C249.123 28.0994 248.826 29.6957 248.241 31.2313C247.656 32.7582 246.799 34.1029 245.705 35.2654C244.602 36.4279 243.287 37.3388 241.735 38.0068C240.191 38.6662 238.512 39.0045 236.671 39.0045H228.172L228.274 38.6054H228.774C230.428 38.6054 231.446 37.9027 231.836 36.4886L236.281 20.5604C236.332 20.3956 236.357 20.2481 236.383 20.1006C236.4 19.9618 236.408 19.8577 236.408 19.7796C236.408 18.8947 235.747 18.4523 234.423 18.4523H233.931L234.033 18.0532H241.599C243.372 18.0532 244.814 18.4436 245.942 19.2157C247.053 19.9705 247.859 20.9942 248.36 22.2261C248.869 23.4841 249.123 24.8808 249.123 26.4337ZM245.815 26.1908C245.815 21.5581 244.424 19.2591 241.659 19.2591C240.794 19.2591 240.132 19.2938 239.682 19.3632L235.051 36.0809L234.975 36.558C234.975 37.4082 235.831 37.8333 237.562 37.8333C239.224 37.8333 240.675 37.2694 241.922 36.1329C243.169 35.0051 244.127 33.5476 244.806 31.7605C245.476 29.9647 245.815 28.0994 245.815 26.1908Z" fill="white"/>
<path d="M228.761 40.0471C228.272 40.0471 227.799 39.8089 227.514 39.4146C227.236 39.0779 227.13 38.5686 227.245 38.084L227.359 37.6815C227.522 36.9997 228.15 36.515 228.867 36.515H229.348C230.457 36.515 230.661 36.0879 230.783 35.6608L235.056 20.6042C234.982 20.6042 234.314 20.596 234.314 20.596C233.816 20.596 233.343 20.3578 233.058 19.9553C232.781 19.6103 232.675 19.101 232.797 18.6164L232.903 18.2303C233.074 17.5485 233.702 17.0557 234.42 17.0557H241.693C243.698 17.0557 245.394 17.5157 246.74 18.4192C248.069 19.3228 249.039 20.5303 249.634 22.0006C250.189 23.3559 250.474 24.8838 250.474 26.5677C250.474 28.3337 250.156 30.0587 249.52 31.6933C248.884 33.3197 247.946 34.7819 246.748 36.0386C245.549 37.2872 244.098 38.2811 242.418 38.9875C240.755 39.6939 238.912 40.0554 236.947 40.0554H228.761V40.0471ZM236.98 35.7183C237.184 35.7429 237.453 35.7593 237.771 35.7593C238.994 35.7593 240.021 35.3651 240.918 34.5601C241.929 33.6647 242.72 32.4737 243.274 31.0198C243.845 29.5166 244.139 27.9394 244.139 26.3295C244.139 21.3435 242.312 21.3435 241.709 21.3435C241.464 21.3435 241.228 21.3435 241.024 21.3517L236.98 35.7183Z" stroke="white" stroke-width="0.5" stroke-miterlimit="10"/>
</g>
<defs>
<clipPath id="clip0">
<rect width="254" height="56" fill="white"/>
</clipPath>
</defs>
</svg>
